<svg xmlns="http://www.w3.org/2000/svg" width="33.686" height="33.686" viewBox="0 0 33.686 33.686">
  <g id="Group_878" data-name="Group 878" transform="translate(16.822 -0.021) rotate(45)">
    <path id="Path_21664" data-name="Path 21664" d="M23.3,7.9,21.516,6.135a2.731,2.731,0,0,1-3.845,0,2.617,2.617,0,0,1-.791-1.923A2.619,2.619,0,0,1,17.67,2.29L15.9.523a1.826,1.826,0,0,0-2.559,0L.523,13.331a1.827,1.827,0,0,0,0,2.559L2.29,17.67a2.617,2.617,0,0,1,1.923-.791,2.617,2.617,0,0,1,1.922.791,2.732,2.732,0,0,1,0,3.846L7.916,23.3a1.826,1.826,0,0,0,2.559,0L23.3,10.461a1.825,1.825,0,0,0,0-2.559Zm-3.831,2.827L10.73,19.465a.921.921,0,0,1-1.273,0L4.34,14.348a.888.888,0,0,1,0-1.273l8.735-8.736a.923.923,0,0,1,1.272,0l5.117,5.118a.885.885,0,0,1,0,1.272Zm0,0" transform="translate(0.029 0)" fill="#265979"/>
    <path id="Path_21665" data-name="Path 21665" d="M8.077,0l4.462,4.462L4.463,12.539,0,8.077Zm0,0" transform="translate(5.663 5.633)" fill="#265979"/>
  </g>
</svg>
