<svg xmlns="http://www.w3.org/2000/svg" xmlns:xlink="http://www.w3.org/1999/xlink" width="48.323" height="34.706" viewBox="0 0 48.323 34.706">
  <defs>
    <clipPath id="clip-path">
      <rect id="Rectangle_1643" data-name="Rectangle 1643" width="48.323" height="34.706" fill="#fff"/>
    </clipPath>
  </defs>
  <g id="Group_866" data-name="Group 866" transform="translate(59 -165.89)">
    <g id="Group_865" data-name="Group 865" transform="translate(-59 165.89)">
      <g id="Group_864" data-name="Group 864" transform="translate(0 0)" clip-path="url(#clip-path)">
        <path id="Path_21533" data-name="Path 21533" d="M-53.359,187.121a.845.845,0,0,0-.414,1.107l1.9,4.08a.846.846,0,0,0,.473.439.842.842,0,0,0,.287.051.844.844,0,0,0,.355-.075l14.359-6.707-1.3,13.6a.844.844,0,0,0,.278.71,3.686,3.686,0,0,0,2.23.845,2.712,2.712,0,0,0,.667-.084c1.166-.3,2.07-1.343,2.686-3.117l5.651-16.732L-15,176.014c3.294-1.537,4.992-4.654,3.852-7.086a4.276,4.276,0,0,0-3.3-2.306,7.828,7.828,0,0,0-4.612.71l-12.915,6.056-13.886-5.431c-1.749-.659-3.133-.642-4.1.06a3.444,3.444,0,0,0-1.259,2.728.845.845,0,0,0,.363.668l9.35,6.428-5.355,2.534-8.979-2.281a.845.845,0,0,0-.937.405l-2.238,4.029a.842.842,0,0,0-.05.695.842.842,0,0,0,.489.5l6.647,2.745Zm3.868-16.8a1.444,1.444,0,0,1,.507-.912c.482-.346,1.36-.3,2.534.144l12.365,4.823-5.642,2.635Zm-7.6,12.2,1.47-2.61,8.641,2.145a.845.845,0,0,0,.558-.05l28.084-13.118a6.173,6.173,0,0,1,3.606-.574,2.645,2.645,0,0,1,2.061,1.334c.709,1.521-.684,3.742-3.041,4.84l-9.73,4.561.592-1.749a.859.859,0,0,0-.545-1.085.859.859,0,0,0-1.086.545l-6.951,20.685c-.414,1.174-.929,1.875-1.5,2.027a1.429,1.429,0,0,1-1.031-.194l1.689-17.738a.848.848,0,0,0-.765-.924.848.848,0,0,0-.925.764l-.262,2.711-14.494,6.757-1.19-2.534,2.381-1.115a.845.845,0,0,0,.5-.773.844.844,0,0,0-.5-.773Zm0,0" transform="translate(59.112 -166.49)" fill="#fff"/>
      </g>
    </g>
  </g>
</svg>
