<svg id="Group_973" data-name="Group 973" xmlns="http://www.w3.org/2000/svg" xmlns:xlink="http://www.w3.org/1999/xlink" width="32.298" height="23.197" viewBox="0 0 32.298 23.197">
  <defs>
    <clipPath id="clip-path">
      <rect id="Rectangle_1643" data-name="Rectangle 1643" width="32.298" height="23.197" fill="none"/>
    </clipPath>
  </defs>
  <g id="Group_865" data-name="Group 865" transform="translate(0 0)">
    <g id="Group_864" data-name="Group 864" transform="translate(0)" clip-path="url(#clip-path)">
      <path id="Path_21533" data-name="Path 21533" d="M-55.269,180.294a.565.565,0,0,0-.277.74l1.27,2.727a.566.566,0,0,0,.316.294.563.563,0,0,0,.192.034.564.564,0,0,0,.237-.05l9.6-4.483-.869,9.089a.564.564,0,0,0,.186.474,2.463,2.463,0,0,0,1.491.565,1.812,1.812,0,0,0,.446-.056,2.869,2.869,0,0,0,1.8-2.083l3.777-11.184,7.48-3.489c2.2-1.027,3.336-3.11,2.575-4.736a2.858,2.858,0,0,0-2.207-1.541,5.232,5.232,0,0,0-3.082.475l-8.632,4.048-9.281-3.63a2.864,2.864,0,0,0-2.744.04,2.3,2.3,0,0,0-.841,1.823.565.565,0,0,0,.243.446l6.249,4.3-3.579,1.694-6-1.525a.564.564,0,0,0-.626.271l-1.5,2.693a.562.562,0,0,0-.033.464.563.563,0,0,0,.327.332l4.443,1.835Zm2.585-11.228a.965.965,0,0,1,.339-.61c.322-.232.909-.2,1.694.1l8.265,3.224-3.771,1.761Zm-5.081,8.152.982-1.744,5.775,1.434a.565.565,0,0,0,.373-.034l18.771-8.768a4.126,4.126,0,0,1,2.41-.384,1.768,1.768,0,0,1,1.378.892c.474,1.016-.458,2.5-2.033,3.235l-6.5,3.049.4-1.169A.574.574,0,0,0-36.58,173a.574.574,0,0,0-.726.364l-4.646,13.826c-.277.785-.621,1.254-1,1.355a.955.955,0,0,1-.689-.13l1.129-11.856a.567.567,0,0,0-.511-.618.567.567,0,0,0-.618.511l-.175,1.812-9.688,4.516-.8-1.694,1.592-.745a.565.565,0,0,0,.337-.517.564.564,0,0,0-.337-.517Zm0,0" transform="translate(59.115 -166.505)"/>
    </g>
  </g>
</svg>
