<svg xmlns="http://www.w3.org/2000/svg" xmlns:xlink="http://www.w3.org/1999/xlink" width="17.574" height="21.97" viewBox="0 0 17.574 21.97">
  <defs>
    <clipPath id="clip-path">
      <path id="Path_24549" data-name="Path 24549" d="M462.881,461.579c0-.078,0-.156,0-.235a6.854,6.854,0,0,0-13.708,0c0,.079,0,.157,0,.235h13.7" transform="translate(-449.178 -454.49)" fill="none"/>
    </clipPath>
  </defs>
  <g id="Group_1495" data-name="Group 1495" transform="translate(-434.304 -339.895)">
    <circle id="Ellipse_359" data-name="Ellipse 359" cx="1.432" cy="1.432" r="1.432" transform="translate(434.89 348.999)" fill="#fff"/>
    <path id="Path_24538" data-name="Path 24538" d="M545.9,411.43A1.432,1.432,0,1,1,544.47,410,1.432,1.432,0,0,1,545.9,411.43Z" transform="translate(-94.614 -60.999)" fill="#fff"/>
    <path id="Path_24539" data-name="Path 24539" d="M437.847,433.1l-.949,3.543-2.593-2.593,3.543-.949" transform="translate(0 -81.1)" fill="#887d79"/>
    <path id="Path_24540" data-name="Path 24540" d="M542.356,433.1l.949,3.543,2.593-2.593-3.542-.949" transform="translate(-94.02 -81.1)" fill="#887d79"/>
    <path id="Path_24541" data-name="Path 24541" d="M462.881,461.578c0-.078,0-.156,0-.235a6.854,6.854,0,1,0-13.708,0c0,.079,0,.157,0,.235Z" transform="translate(-12.942 -99.713)" fill="#ea6863"/>
    <path id="Path_24542" data-name="Path 24542" d="M456.613,355.771A6.787,6.787,0,0,1,449.846,349v-2.342a6.767,6.767,0,1,1,13.534,0V349a6.787,6.787,0,0,1-6.767,6.767" transform="translate(-13.524 0)" fill="#fff"/>
    <path id="Path_24543" data-name="Path 24543" d="M462.153,421.968a1.278,1.278,0,1,0,1.278,1.278,1.278,1.278,0,0,0-1.278-1.278" transform="translate(-23.12 -71.415)" fill="#f7e9e7"/>
    <path id="Path_24544" data-name="Path 24544" d="M524.746,421.968a1.278,1.278,0,1,0,1.278,1.278,1.278,1.278,0,0,0-1.278-1.278" transform="translate(-77.585 -71.415)" fill="#f7e9e7"/>
    <path id="Path_24545" data-name="Path 24545" d="M473.914,410.5h-.367a.7.7,0,1,0-1.409,0h-.367a1.072,1.072,0,1,1,2.143,0Z" transform="translate(-32.601 -60.502)" fill="#023fa1"/>
    <path id="Path_24546" data-name="Path 24546" d="M517.268,410.5H516.9a.7.7,0,0,0-1.409,0h-.367a1.072,1.072,0,1,1,2.144,0Z" transform="translate(-70.325 -60.502)" fill="#023fa1"/>
    <path id="Path_24547" data-name="Path 24547" d="M458.508,340.167l-.013,0q-.121-.035-.244-.066l-.026-.006q-.243-.06-.493-.1l-.039-.006c-.081-.013-.162-.025-.244-.035l-.028,0c-.076-.009-.152-.017-.229-.024l-.036,0c-.081-.007-.161-.011-.242-.015l-.051,0c-.083,0-.166-.005-.25-.005s-.167,0-.25.005l-.051,0c-.081,0-.162.008-.242.015l-.036,0c-.077.007-.153.014-.229.024l-.028,0c-.082.01-.163.022-.244.035l-.039.006q-.249.042-.492.1l-.027.006q-.122.031-.243.066l-.014,0q-.124.036-.246.077h0a6.793,6.793,0,0,0-4.627,6.418v2.043c.11,0,.221.007.333.007a8.554,8.554,0,0,0,6.434-2.907,8.555,8.555,0,0,0,6.434,2.907c.112,0,.223,0,.333-.007v-2.043A6.794,6.794,0,0,0,458.508,340.167Z" transform="translate(-13.524 0)" fill="#6a5c56"/>
    <path id="Path_24548" data-name="Path 24548" d="M495.008,420.407a1.045,1.045,0,0,0,1.044-1.044h-2.089A1.044,1.044,0,0,0,495.008,420.407Z" transform="translate(-51.912 -69.148)" fill="#ef4039"/>
    <g id="Group_1494" data-name="Group 1494" transform="translate(436.236 354.777)">
      <g id="Group_1493" data-name="Group 1493" transform="translate(0 0)" clip-path="url(#clip-path)">
        <circle id="Ellipse_360" data-name="Ellipse 360" cx="1.055" cy="1.055" r="1.055" transform="translate(0 3.287)" fill="#fff"/>
        <circle id="Ellipse_361" data-name="Ellipse 361" cx="1.055" cy="1.055" r="1.055" transform="translate(2.967 6.034)" fill="#fff"/>
        <circle id="Ellipse_362" data-name="Ellipse 362" cx="1.055" cy="1.055" r="1.055" transform="translate(3.706 1.778)" fill="#fff"/>
        <circle id="Ellipse_363" data-name="Ellipse 363" cx="1.055" cy="1.055" r="1.055" transform="translate(7.212 3.77)" fill="#fff"/>
        <circle id="Ellipse_364" data-name="Ellipse 364" cx="1.055" cy="1.055" r="1.055" transform="translate(9.741 0.799)" fill="#fff"/>
        <circle id="Ellipse_365" data-name="Ellipse 365" cx="1.055" cy="1.055" r="1.055" transform="translate(10.81 5.842)" fill="#fff"/>
      </g>
    </g>
  </g>
</svg>
