<svg xmlns="http://www.w3.org/2000/svg" width="30.536" height="30.536" viewBox="0 0 30.536 30.536">
  <g id="Group_985" data-name="Group 985" transform="translate(-41 -165.89)">
    <path id="Path_21544" data-name="Path 21544" d="M54.741,175.051H51.179v-6.107h.509a.509.509,0,0,0,.509-.509V166.4a.509.509,0,0,0-.509-.509H45.58a.509.509,0,0,0-.509.509v2.036a.509.509,0,0,0,.509.509h.509v6.107H42.527A1.527,1.527,0,0,0,41,176.578v16.286a1.527,1.527,0,0,0,1.527,1.527v1.527a.509.509,0,0,0,.509.509h2.036a.509.509,0,0,0,.509-.509V194.39h6.107v1.527a.509.509,0,0,0,.509.509h2.036a.509.509,0,0,0,.509-.509V194.39a1.527,1.527,0,0,0,1.527-1.527V176.578a1.527,1.527,0,0,0-1.527-1.527Zm-8.652-8.143h5.09v1.018h-5.09Zm1.018,2.036h3.054v6.107H47.107Zm-2.545,26.465H43.545V194.39h1.018Zm9.161,0H52.705V194.39h1.018Zm1.527-2.545a.509.509,0,0,1-.509.509H42.527a.509.509,0,0,1-.509-.509V176.578a.509.509,0,0,1,.509-.509H54.741a.509.509,0,0,1,.509.509Zm0,0" transform="translate(0)"/>
    <rect id="Rectangle_1697" data-name="Rectangle 1697" width="1.018" height="13.232" transform="translate(48.125 178.104)"/>
    <rect id="Rectangle_1698" data-name="Rectangle 1698" width="1.018" height="13.232" transform="translate(44.563 178.104)"/>
    <rect id="Rectangle_1699" data-name="Rectangle 1699" width="1.018" height="13.232" transform="translate(51.688 178.104)"/>
    <path id="Path_21545" data-name="Path 21545" d="M326.789,475.125h-2.036v-.509a1.527,1.527,0,0,0-1.527-1.527h-4.072a1.527,1.527,0,0,0-1.527,1.527v.509h-2.036a1.527,1.527,0,0,0-1.527,1.527v7.125a1.527,1.527,0,0,0,1.527,1.527h11.2a1.527,1.527,0,0,0,1.527-1.527v-7.125a1.527,1.527,0,0,0-1.527-1.527Zm-8.143-.509a.509.509,0,0,1,.509-.509h4.071a.509.509,0,0,1,.509.509v.509h-5.089Zm8.652,9.161a.509.509,0,0,1-.509.509h-11.2a.509.509,0,0,1-.509-.509v-7.125a.509.509,0,0,1,.509-.509h11.2a.509.509,0,0,1,.509.509Zm0,0" transform="translate(-256.78 -288.877)"/>
    <rect id="Rectangle_1700" data-name="Rectangle 1700" width="1.018" height="4.071" transform="translate(63.902 189.301)"/>
    <rect id="Rectangle_1701" data-name="Rectangle 1701" width="1.018" height="4.071" transform="translate(60.849 189.301)"/>
    <rect id="Rectangle_1702" data-name="Rectangle 1702" width="1.018" height="4.071" transform="translate(66.956 189.301)"/>
  </g>
</svg>
