<svg id="biletplaza-logo-orange" xmlns="http://www.w3.org/2000/svg" width="197.6" height="42.8" viewBox="0 0 197.6 42.8">
  <path id="Path_19872" data-name="Path 19872" d="M13.8,11a3.506,3.506,0,0,1,.6-1.4,5.241,5.241,0,0,1,1-1.1,3.746,3.746,0,0,1,1.2-.7,2.953,2.953,0,0,1,1.3-.2,3.73,3.73,0,0,1,1.2.2,2.7,2.7,0,0,1,.8.7,2.016,2.016,0,0,1,.3,1.1A3.644,3.644,0,0,1,20,11l-2.3,8.5a11.905,11.905,0,0,1,1.5-.9,8.651,8.651,0,0,1,1.7-.7,10.462,10.462,0,0,1,1.7-.4,8.752,8.752,0,0,1,1.6-.2,7.9,7.9,0,0,1,4,.9A5.143,5.143,0,0,1,30.6,21a12.36,12.36,0,0,1,.9,3.9,12.013,12.013,0,0,1-.4,4.2v.6a13.267,13.267,0,0,1-1.9,4.2,22.1,22.1,0,0,1-3.1,3.9,12.849,12.849,0,0,1-4,2.7,11.3,11.3,0,0,1-4.5.9H16.1l-1.2-.3a3.7,3.7,0,0,1-1.1-.5,6.47,6.47,0,0,1-.9-.8,3.128,3.128,0,0,1-.5-1,4.129,4.129,0,0,1-.7,1.1,6.47,6.47,0,0,1-.9.8,3.128,3.128,0,0,1-1,.5,5.019,5.019,0,0,1-1.2.2,3.73,3.73,0,0,1-1.2-.2,1.779,1.779,0,0,1-.8-.7,2.1,2.1,0,0,1-.4-1.1A3.644,3.644,0,0,1,6.4,38h0Zm1.4,18.5a.31.31,0,0,1-.1.2l-.1.1v.8a14.084,14.084,0,0,0-.1,2,6.07,6.07,0,0,0,.5,1.8,2.365,2.365,0,0,0,1.1,1.3,3.576,3.576,0,0,0,1.9.4,4.477,4.477,0,0,0,2-.4,6.57,6.57,0,0,0,1.7-1.2c.6-.6,1-1.1,1.5-1.7a6.916,6.916,0,0,0,1-1.9v-.2a.1.1,0,0,1,.1-.1c0-.1.1-.1.1-.2v-.3c0-.1,0-.1.1-.2l.1-.1v-.7c0-.1.1-.1.1-.2v-.5a6.045,6.045,0,0,0,0-1.9,8.447,8.447,0,0,0-.5-1.7,1.887,1.887,0,0,0-1.1-1.2,3.425,3.425,0,0,0-1.8-.4,5.932,5.932,0,0,0-2.3.5,6.222,6.222,0,0,0-1.9,1.4A8.467,8.467,0,0,0,16.1,27a9.494,9.494,0,0,0-.9,2.1v.3h0S15.2,29.4,15.2,29.5Z" transform="translate(-6.2 -7.6)" fill="#ffaf1e"/>
  <path id="Path_19873" data-name="Path 19873" d="M37.1,21.1a3.506,3.506,0,0,1,.6-1.4,4.811,4.811,0,0,1,.9-1.1,3.746,3.746,0,0,1,1.2-.7,2.745,2.745,0,0,1,1.3-.2,3.73,3.73,0,0,1,1.2.2,2.7,2.7,0,0,1,.8.7,3.582,3.582,0,0,1,.4,1.1,3.644,3.644,0,0,1-.2,1.4L38.8,37.8a3.946,3.946,0,0,1-.6,1.5,10.627,10.627,0,0,1-.9,1.1,7.459,7.459,0,0,1-1.2.7,5.853,5.853,0,0,1-1.3.2,3.73,3.73,0,0,1-1.2-.2,1.779,1.779,0,0,1-.8-.7,2.1,2.1,0,0,1-.4-1.1,3.644,3.644,0,0,1,.2-1.4h0ZM44.9,8.6a1.765,1.765,0,0,1,.9.8,2.22,2.22,0,0,1,.5,1.1,1.99,1.99,0,0,1-.1,1.3,3.506,3.506,0,0,1-.6,1.4,11.985,11.985,0,0,1-1.1,1.2,9.13,9.13,0,0,1-1.3.8,3.194,3.194,0,0,1-1.4.3,2.768,2.768,0,0,1-1.3-.3,1.765,1.765,0,0,1-.9-.8,2.2,2.2,0,0,1-.5-1.2,3.437,3.437,0,0,1,.1-1.4,3.79,3.79,0,0,1,.6-1.3,5.731,5.731,0,0,1,1.1-1.1,6.376,6.376,0,0,1,1.4-.8,3.529,3.529,0,0,1,1.4-.3h0A2.133,2.133,0,0,1,44.9,8.6Z" transform="translate(-6.2 -7.6)" fill="#ffaf1e"/>
  <path id="Path_19874" data-name="Path 19874" d="M50.6,11a3.506,3.506,0,0,1,.6-1.4,5.241,5.241,0,0,1,1-1.1,3.746,3.746,0,0,1,1.2-.7,5.853,5.853,0,0,1,1.3-.2,3.73,3.73,0,0,1,1.2.2,2.7,2.7,0,0,1,.8.7A2.375,2.375,0,0,1,57,9.7a3.644,3.644,0,0,1-.2,1.4L49.6,37.9a3.946,3.946,0,0,1-.6,1.5,10.627,10.627,0,0,1-.9,1.1,7.459,7.459,0,0,1-1.2.7,5.853,5.853,0,0,1-1.3.2,3.73,3.73,0,0,1-1.2-.2,1.779,1.779,0,0,1-.8-.7,2.1,2.1,0,0,1-.4-1.1,3.644,3.644,0,0,1,.2-1.4h0Z" transform="translate(-6.2 -7.6)" fill="#ffaf1e"/>
  <path id="Path_19875" data-name="Path 19875" d="M61,31.6a4.261,4.261,0,0,0,.1,2,2.434,2.434,0,0,0,1,1.4,3.465,3.465,0,0,0,1.6.8,6.448,6.448,0,0,0,2,.3,4.869,4.869,0,0,0,1.2-.1c.4-.1.8-.2,1.1-.3a1.854,1.854,0,0,1,.7-.2,1.421,1.421,0,0,1,.6-.2c.1-.1.3-.1.4-.2s.3-.1.4-.2a4.053,4.053,0,0,0,.9-.5,3.552,3.552,0,0,1,.9-.4,6.89,6.89,0,0,0,.8-.3,1.483,1.483,0,0,1,.7-.1,2.92,2.92,0,0,1,.9.2,1.575,1.575,0,0,1,.7.7,1.613,1.613,0,0,1,.3.9,2.719,2.719,0,0,1,0,.9A4.107,4.107,0,0,1,74.2,38a8.324,8.324,0,0,1-2.3,1.5,18.77,18.77,0,0,1-3,1.2,30.055,30.055,0,0,1-3.2.7h-.5a.9.9,0,0,0-.5.1h-1a12.622,12.622,0,0,1-4.6-.8A6.916,6.916,0,0,1,56,38.2a8.3,8.3,0,0,1-1.4-3.9,14.013,14.013,0,0,1,.5-4.8,15.122,15.122,0,0,1,2-4.5,17.639,17.639,0,0,1,3.4-3.9,18.608,18.608,0,0,1,4.3-2.8,12.8,12.8,0,0,1,4.8-.9,8.9,8.9,0,0,1,3.8.7,6.435,6.435,0,0,1,2.7,2.2,10.965,10.965,0,0,1,1.6,3,9.349,9.349,0,0,1,.4,3.3v.3a.367.367,0,0,1-.1.3c0,.1-.1.2-.1.3v.3c0,.2-.1.3-.1.5s-.1.3-.1.5a3.337,3.337,0,0,1-.5,1.2c-.2.3-.5.6-.7.9a3.128,3.128,0,0,1-1,.5,5.067,5.067,0,0,1-1.3.2H61Zm10.9-4.2a5.4,5.4,0,0,0,0-1.8,2.628,2.628,0,0,0-.7-1.5,2.335,2.335,0,0,0-1.2-1,5.04,5.04,0,0,0-1.9-.3,6.448,6.448,0,0,0-2,.3,8.107,8.107,0,0,0-1.8,1c-.6.5-1,1-1.5,1.5a11.4,11.4,0,0,0-1,1.9H71.9Z" transform="translate(-6.2 -7.6)" fill="#ffaf1e"/>
  <path id="Path_19876" data-name="Path 19876" d="M84.1,23.4H82.7a3.749,3.749,0,0,1-1.1-.1,1.344,1.344,0,0,1-.7-.6,1.136,1.136,0,0,1-.3-.8,5.739,5.739,0,0,1,.1-1.2,3.7,3.7,0,0,1,.5-1.1,6.469,6.469,0,0,1,.8-.9,2.664,2.664,0,0,1,1-.6,4.253,4.253,0,0,1,1.1-.2h1.4l1-3.7a3.506,3.506,0,0,1,.6-1.4,4.811,4.811,0,0,1,.9-1.1,3.746,3.746,0,0,1,1.2-.7,2.745,2.745,0,0,1,1.3-.2,3.73,3.73,0,0,1,1.2.2,2.7,2.7,0,0,1,.8.7,3.582,3.582,0,0,1,.4,1.1,3.645,3.645,0,0,1-.2,1.4l-1,3.7h1.8a3.6,3.6,0,0,1,1.1.2,2.1,2.1,0,0,1,1.3,1.3,2.979,2.979,0,0,1-.1,1.3,3.1,3.1,0,0,1-.6,1.3l-.9.9a5.359,5.359,0,0,1-1.1.5,4.3,4.3,0,0,1-1.2.2H90.2L86.3,38.1a3.946,3.946,0,0,1-.6,1.5,10.627,10.627,0,0,1-.9,1.1,7.459,7.459,0,0,1-1.2.7,5.853,5.853,0,0,1-1.3.2,3.73,3.73,0,0,1-1.2-.2,1.779,1.779,0,0,1-.8-.7,2.1,2.1,0,0,1-.4-1.1,3.645,3.645,0,0,1,.2-1.4h0Z" transform="translate(-6.2 -7.6)" fill="#ffaf1e"/>
  <path id="Path_19877" data-name="Path 19877" d="M97.2,21.1a3.506,3.506,0,0,1,.6-1.4,4.811,4.811,0,0,1,.9-1.1,3.746,3.746,0,0,1,1.2-.7,2.745,2.745,0,0,1,1.3-.2,3.6,3.6,0,0,1,1.1.2,2.177,2.177,0,0,1,.8.5,2.01,2.01,0,0,1,.4.8,3.75,3.75,0,0,1,.1,1.1,15.38,15.38,0,0,1,1.3-1.2c.5-.3,1-.6,1.6-.9a1.421,1.421,0,0,1,.6-.2c.2-.1.4-.1.6-.2.4-.1.8-.2,1.1-.3.4-.1.8-.1,1.1-.2h.5a7.9,7.9,0,0,1,4,.9,5.143,5.143,0,0,1,2.4,2.8,12.36,12.36,0,0,1,.9,3.9,12.013,12.013,0,0,1-.4,4.2v.6a13.267,13.267,0,0,1-1.9,4.2,22.1,22.1,0,0,1-3.1,3.9,12.849,12.849,0,0,1-4,2.7,11.3,11.3,0,0,1-4.5.9h-1.2a.349.349,0,0,1-.2-.1h-.2c-.3-.1-.7-.2-1-.3a6.894,6.894,0,0,1-1-.4,4.053,4.053,0,0,1-.9-.5,5.716,5.716,0,0,1-.8-.7l-2,7.6a3.506,3.506,0,0,1-.6,1.4,5.241,5.241,0,0,1-1,1.1,3.746,3.746,0,0,1-1.2.7,2.953,2.953,0,0,1-1.3.2,3.73,3.73,0,0,1-1.2-.2,2.7,2.7,0,0,1-.8-.7,2.016,2.016,0,0,1-.3-1.1,3.645,3.645,0,0,1,.2-1.4h0Zm4,8.4a.31.31,0,0,1-.1.2l-.1.1v.8a14.084,14.084,0,0,0-.1,2,6.07,6.07,0,0,0,.5,1.8,2.365,2.365,0,0,0,1.1,1.3,3.576,3.576,0,0,0,1.9.4,4.477,4.477,0,0,0,2-.4,6.57,6.57,0,0,0,1.7-1.2c.6-.6,1-1.1,1.5-1.7a6.915,6.915,0,0,0,1-1.9v-.2a.1.1,0,0,1,.1-.1c0-.1.1-.1.1-.2v-.3c0-.1,0-.1.1-.2l.1-.1v-.7c0-.1.1-.1.1-.2v-.5a6.045,6.045,0,0,0,0-1.9,8.447,8.447,0,0,0-.5-1.7,1.887,1.887,0,0,0-1.1-1.2,3.425,3.425,0,0,0-1.8-.4,5.932,5.932,0,0,0-2.3.5,6.222,6.222,0,0,0-1.9,1.4,8.467,8.467,0,0,0-1.4,1.9,9.494,9.494,0,0,0-.9,2.1v.3h0C101.3,29.4,101.3,29.4,101.2,29.5Z" transform="translate(-6.2 -7.6)" fill="#ffaf1e"/>
  <path id="Path_19878" data-name="Path 19878" d="M125.9,11a3.506,3.506,0,0,1,.6-1.4,5.241,5.241,0,0,1,1-1.1,3.746,3.746,0,0,1,1.2-.7,5.853,5.853,0,0,1,1.3-.2,3.73,3.73,0,0,1,1.2.2,2.7,2.7,0,0,1,.8.7,2.016,2.016,0,0,1,.3,1.1,3.645,3.645,0,0,1-.2,1.4L125,37.9a3.946,3.946,0,0,1-.6,1.5,10.627,10.627,0,0,1-.9,1.1,7.459,7.459,0,0,1-1.2.7,5.853,5.853,0,0,1-1.3.2,3.73,3.73,0,0,1-1.2-.2,1.779,1.779,0,0,1-.8-.7,2.1,2.1,0,0,1-.4-1.1,3.645,3.645,0,0,1,.2-1.4h0Z" transform="translate(-6.2 -7.6)" fill="#ffaf1e"/>
  <path id="Path_19879" data-name="Path 19879" d="M151.1,37.3c0,.1-.1.2-.1.3s-.1.2-.1.3-.1.1-.1.2,0,.1-.1.2a.349.349,0,0,1-.1.2c0,.1,0,.1-.1.2a4.672,4.672,0,0,1-.5,1,5.716,5.716,0,0,1-.7.8,2.075,2.075,0,0,1-1,.6,5.9,5.9,0,0,1-1.4.2,3.087,3.087,0,0,1-1.1-.2,1.794,1.794,0,0,1-.7-.5,1.909,1.909,0,0,1-.3-.8,3.749,3.749,0,0,1-.1-1.1c-.6.5-1.1.9-1.6,1.3a6.467,6.467,0,0,1-1.6.9,10.227,10.227,0,0,1-3.5.7,8.552,8.552,0,0,1-3.8-.8,6.469,6.469,0,0,1-2.7-2.5,8.149,8.149,0,0,1-1.2-3.9,17.033,17.033,0,0,1,.5-4.8,18,18,0,0,1,2-4.7,15.538,15.538,0,0,1,3.3-3.9,14.11,14.11,0,0,1,4.1-2.6,10.588,10.588,0,0,1,4.2-.9,9.852,9.852,0,0,1,1.7.2,8.8,8.8,0,0,1,1.5.5,2.73,2.73,0,0,1,1.2.9,5.67,5.67,0,0,1,.8,1.3,2.075,2.075,0,0,1,.6-1,3.45,3.45,0,0,1,.9-.8,3.7,3.7,0,0,1,1.1-.5,4.253,4.253,0,0,1,1.1-.2,3.918,3.918,0,0,1,1.3.2,1.208,1.208,0,0,1,.7.7l.3.9v.9c0,.1-.1.1-.1.2v.4c0,.1,0,.1-.1.2v.2c0,.1,0,.1-.1.2,0,.1-.1.1-.1.2v.2h0Zm-14-7.6v.4c0,.1-.1.1-.1.2v.2a14.083,14.083,0,0,0-.1,2,11.628,11.628,0,0,0,.4,1.8,2.365,2.365,0,0,0,1.1,1.3,3.966,3.966,0,0,0,2,.4,5.023,5.023,0,0,0,3.9-1.7,10.991,10.991,0,0,0,1.4-1.8,7.218,7.218,0,0,0,.9-2v-.1a.1.1,0,0,1,.1-.1l.1-.1v-.9c0-.1.1-.2.1-.3a.367.367,0,0,1,.1-.3,6.7,6.7,0,0,0,0-2,11.628,11.628,0,0,0-.4-1.8,2.365,2.365,0,0,0-1.1-1.3,3.576,3.576,0,0,0-1.9-.4,5.381,5.381,0,0,0-2.2.4,4.628,4.628,0,0,0-1.8,1.3,7.944,7.944,0,0,0-1.4,1.8,12.446,12.446,0,0,0-1,2v.1a.31.31,0,0,1-.1.2l-.1.1v.2a.349.349,0,0,1-.1.2c0,.1,0,.1-.1.2h0C137.1,29.6,137.1,29.7,137.1,29.7Z" transform="translate(-6.2 -7.6)" fill="#ffaf1e"/>
  <path id="Path_19880" data-name="Path 19880" d="M168.6,23.4h-7.3a3.083,3.083,0,0,1-1-.1,2.177,2.177,0,0,1-.8-.5,1.884,1.884,0,0,1-.4-.9,5.739,5.739,0,0,1,.1-1.2,6.118,6.118,0,0,1,.5-1.2,3.043,3.043,0,0,1,.8-.8,3.7,3.7,0,0,1,1.1-.5,5.019,5.019,0,0,1,1.2-.2H177c.1,0,.1.1.2.1h.2c.1,0,.1.1.2.1a.367.367,0,0,1,.3.1c.1.1.2.1.3.2a1.38,1.38,0,0,1,.3.4.749.749,0,0,1,.1.5,1.952,1.952,0,0,1-.1.7c0,.1-.1.2-.1.4-.1.1-.1.2-.2.3,0,.1-.1.2-.1.3s-.1.2-.2.3l-.1.1h-.1l-.1.1-.1.1c0,.1-.1.1-.1.2l-.2.2L163.6,35.9h8.3a2.509,2.509,0,0,1,1,.2,1.794,1.794,0,0,1,.7.5,2.01,2.01,0,0,1,.4.8,2.633,2.633,0,0,1-.1,1.2,4.329,4.329,0,0,1-.5,1.2,3.043,3.043,0,0,1-.8.8,4.671,4.671,0,0,1-1,.5,3.6,3.6,0,0,1-1.1.2H155.9a3.4,3.4,0,0,1-1-.1,2.01,2.01,0,0,1-.8-.4,1.612,1.612,0,0,1-.4-.7,3.751,3.751,0,0,1,.1-1v-.4c0-.1.1-.1.1-.2s.1-.1.1-.2.1-.1.1-.2a.1.1,0,0,1,.1-.1c0-.1.1-.1.1-.2a.1.1,0,0,1,.1-.1l.1-.1.1-.1v-.1l.1-.1h0Z" transform="translate(-6.2 -7.6)" fill="#ffaf1e"/>
  <path id="Path_19881" data-name="Path 19881" d="M199.3,37.3c0,.1-.1.2-.1.3s-.1.2-.1.3-.1.1-.1.2,0,.1-.1.2a.349.349,0,0,1-.1.2c0,.1,0,.1-.1.2a4.672,4.672,0,0,1-.5,1,5.716,5.716,0,0,1-.7.8,2.075,2.075,0,0,1-1,.6,5.9,5.9,0,0,1-1.4.2,3.087,3.087,0,0,1-1.1-.2,1.794,1.794,0,0,1-.7-.5,1.909,1.909,0,0,1-.3-.8,3.749,3.749,0,0,1-.1-1.1c-.6.5-1.1.9-1.6,1.3a6.467,6.467,0,0,1-1.6.9,10.227,10.227,0,0,1-3.5.7,8.552,8.552,0,0,1-3.8-.8,7.118,7.118,0,0,1-2.7-2.5,8.149,8.149,0,0,1-1.2-3.9,17.033,17.033,0,0,1,.5-4.8,18,18,0,0,1,2-4.7,15.538,15.538,0,0,1,3.3-3.9,14.11,14.11,0,0,1,4.1-2.6,10.588,10.588,0,0,1,4.2-.9,9.852,9.852,0,0,1,1.7.2,8.8,8.8,0,0,1,1.5.5,2.73,2.73,0,0,1,1.2.9,5.67,5.67,0,0,1,.8,1.3,2.075,2.075,0,0,1,.6-1,3.45,3.45,0,0,1,.9-.8,3.7,3.7,0,0,1,1.1-.5,4.253,4.253,0,0,1,1.1-.2,3.918,3.918,0,0,1,1.3.2,1.208,1.208,0,0,1,.7.7l.3.9v.9c0,.1-.1.1-.1.2v.4c0,.1,0,.1-.1.2v.2c0,.1,0,.1-.1.2,0,.1-.1.1-.1.2v.2h0Zm-14.1-7.6v.4c0,.1-.1.1-.1.2v.2a14.083,14.083,0,0,0-.1,2,11.628,11.628,0,0,0,.4,1.8,2.365,2.365,0,0,0,1.1,1.3,3.966,3.966,0,0,0,2,.4,5.023,5.023,0,0,0,3.9-1.7,10.991,10.991,0,0,0,1.4-1.8,7.218,7.218,0,0,0,.9-2v-.1a.1.1,0,0,1,.1-.1l.1-.1v-.9a.367.367,0,0,1,.1-.3.367.367,0,0,1,.1-.3,6.7,6.7,0,0,0,0-2,11.628,11.628,0,0,0-.4-1.8,2.365,2.365,0,0,0-1.1-1.3,3.576,3.576,0,0,0-1.9-.4,5.381,5.381,0,0,0-2.2.4,4.628,4.628,0,0,0-1.8,1.3,7.944,7.944,0,0,0-1.4,1.8,12.446,12.446,0,0,0-1,2v.1a.31.31,0,0,1-.1.2l-.1.1v.2a.349.349,0,0,1-.1.2c0,.1,0,.1-.1.2h0C185.3,29.6,185.2,29.7,185.2,29.7Z" transform="translate(-6.2 -7.6)" fill="#ffaf1e"/>
</svg>
