<svg xmlns="http://www.w3.org/2000/svg" xmlns:xlink="http://www.w3.org/1999/xlink" width="46" height="21" viewBox="0 0 46 21">
  <defs>
    <clipPath id="clip-path">
      <rect id="Rectangle_1655" data-name="Rectangle 1655" width="46" height="21" transform="translate(0 0.063)" fill="#012057"/>
    </clipPath>
  </defs>
  <g id="bus-ticket-blue" transform="translate(0 -0.063)" clip-path="url(#clip-path)">
    <path id="Path_21541" data-name="Path 21541" d="M101.4,316.943,99.1,311.862a5.1,5.1,0,0,0-4.622-2.972H61.422A4.426,4.426,0,0,0,57,313.312v11.05a2.427,2.427,0,0,0,2.423,2.423H63.04a3.728,3.728,0,0,0,7.307,0H88.391a3.728,3.728,0,0,0,7.307,0h3.967a2.075,2.075,0,0,0,2.073-2.073v-6.226a3.715,3.715,0,0,0-.335-1.544Zm-1.617.049-7-.585v-3.132l5.027-.628ZM66.693,328.277a2.237,2.237,0,1,1,2.237-2.237,2.237,2.237,0,0,1-2.237,2.237Zm25.352,0a2.237,2.237,0,1,1,2.237-2.237,2.237,2.237,0,0,1-2.237,2.237Zm7.621-2.983H95.7a3.728,3.728,0,0,0-7.307,0H70.347a3.728,3.728,0,0,0-7.307,0H59.423a.933.933,0,0,1-.932-.932v-11.05a2.933,2.933,0,0,1,2.93-2.93H94.475a3.594,3.594,0,0,1,2.357.887l-4.834.6H62.965a.746.746,0,0,0-.746.746v4.474a.746.746,0,0,0,.746.746H92.014l8.233.686v6.189a.582.582,0,0,1-.581.581Zm-35.955-8.948v-2.983H68.93v2.983Zm6.711-2.983h5.965v2.983H70.421Zm7.456,0H83.1v2.983H77.878Zm6.711,0H91.3v2.983H84.589Zm0,0" transform="translate(-56.645 -308.762)" fill="#012057"/>
  </g>
</svg>
