<svg id="Group_546" data-name="Group 546" xmlns="http://www.w3.org/2000/svg" width="118.646" height="34.892" viewBox="0 0 118.646 34.892">
  <path id="Path_21282" data-name="Path 21282" d="M115.23,30.267H99.867a.741.741,0,0,1-.561-.259.73.73,0,0,1-.166-.595,8.92,8.92,0,0,0,.1-.9,6.434,6.434,0,0,0-1.884-4.728,7.367,7.367,0,0,0-5.186-2.309,7.243,7.243,0,0,0-7.07,7.1,5.894,5.894,0,0,0,.03.875.736.736,0,0,1-.735.816H38.741a.737.737,0,0,1-.731-.824c.022-.181.037-.366.044-.55a6.434,6.434,0,0,0-1.884-4.728,7.366,7.366,0,0,0-5.186-2.309,7.243,7.243,0,0,0-7.07,7.1,5.178,5.178,0,0,0,0,.532.739.739,0,0,1-.739.772H4.68A4.686,4.686,0,0,1,0,25.587V4.422A4.427,4.427,0,0,1,4.422,0h99.15a10.95,10.95,0,0,1,10.66,8.37l4.314,17.671a3.417,3.417,0,0,1-3.317,4.226ZM100.695,28.79H115.23a1.934,1.934,0,0,0,1.88-2.394L112.8,8.725a9.468,9.468,0,0,0-9.224-7.247H4.422A2.95,2.95,0,0,0,1.478,4.422V25.584a3.207,3.207,0,0,0,3.2,3.2H22.444a8.513,8.513,0,0,1,14.794-5.641,7.915,7.915,0,0,1,2.3,5.644H83.607c0-.092,0-.188.007-.281a8.518,8.518,0,0,1,14.8-5.748,7.894,7.894,0,0,1,2.294,5.814C100.7,28.646,100.7,28.716,100.695,28.79Z" fill="#a29d9d"/>
  <path id="Path_21283" data-name="Path 21283" d="M238.719,72.918a6.309,6.309,0,1,1,6.309-6.309A6.315,6.315,0,0,1,238.719,72.918Zm0-11.137a4.832,4.832,0,1,0,4.832,4.832A4.838,4.838,0,0,0,238.719,61.781Z" transform="translate(-146.561 -38.026)" fill="#a29d9d"/>
  <path id="Path_21284" data-name="Path 21284" d="M73.109,72.918a6.309,6.309,0,1,1,6.309-6.309A6.315,6.315,0,0,1,73.109,72.918Zm0-11.137a4.832,4.832,0,1,0,4.832,4.832A4.838,4.838,0,0,0,73.109,61.781Z" transform="translate(-42.125 -38.026)" fill="#a29d9d"/>
  <path id="Path_21285" data-name="Path 21285" d="M279.82,22.6c-3.938,0-12.06-.72-17.058-6.18a.733.733,0,0,1-.192-.5V2h1.478V15.63c6.191,6.475,17.779,5.419,17.893,5.408l.144,1.47C281.959,22.523,281.117,22.6,279.82,22.6Z" transform="translate(-165.58 -1.261)" fill="#a29d9d"/>
  <path id="Path_21286" data-name="Path 21286" d="M240,20.09h-6.856a.741.741,0,0,1-.739-.739V11.639a.741.741,0,0,1,.739-.739H240a.741.741,0,0,1,.739.739v7.713A.739.739,0,0,1,240,20.09Zm-6.113-1.478h5.378V12.378h-5.378Z" transform="translate(-146.561 -6.874)" fill="#a29d9d"/>
  <path id="Path_21287" data-name="Path 21287" d="M209.5,20.09h-6.856a.741.741,0,0,1-.739-.739V11.639a.741.741,0,0,1,.739-.739H209.5a.741.741,0,0,1,.739.739v7.713A.739.739,0,0,1,209.5,20.09Zm-6.117-1.478h5.378V12.378h-5.378Z" transform="translate(-127.327 -6.874)" fill="#a29d9d"/>
  <path id="Path_21288" data-name="Path 21288" d="M179,20.09h-6.856a.741.741,0,0,1-.739-.739V11.639a.741.741,0,0,1,.739-.739H179a.741.741,0,0,1,.739.739v7.713A.741.741,0,0,1,179,20.09Zm-6.117-1.478h5.378V12.378h-5.378Z" transform="translate(-108.094 -6.874)" fill="#a29d9d"/>
  <path id="Path_21289" data-name="Path 21289" d="M148.5,20.09h-6.856a.741.741,0,0,1-.739-.739V11.639a.741.741,0,0,1,.739-.739H148.5a.741.741,0,0,1,.739.739v7.713A.741.741,0,0,1,148.5,20.09Zm-6.117-1.478h5.378V12.378h-5.378Z" transform="translate(-88.86 -6.874)" fill="#a29d9d"/>
  <path id="Path_21290" data-name="Path 21290" d="M118,20.09h-6.856a.741.741,0,0,1-.739-.739V11.639a.741.741,0,0,1,.739-.739H118a.741.741,0,0,1,.739.739v7.713A.741.741,0,0,1,118,20.09Zm-6.117-1.478h5.378V12.378h-5.378Z" transform="translate(-69.626 -6.874)" fill="#a29d9d"/>
  <path id="Path_21291" data-name="Path 21291" d="M87.5,20.09H80.649a.741.741,0,0,1-.739-.739V11.639a.741.741,0,0,1,.739-.739H87.5a.741.741,0,0,1,.739.739v7.713A.744.744,0,0,1,87.5,20.09Zm-6.113-1.478h5.378V12.378H81.388Z" transform="translate(-50.392 -6.874)" fill="#a29d9d"/>
  <path id="Path_21292" data-name="Path 21292" d="M57,20.09H50.149a.741.741,0,0,1-.739-.739V11.639a.741.741,0,0,1,.739-.739H57a.741.741,0,0,1,.739.739v7.713A.744.744,0,0,1,57,20.09Zm-6.113-1.478h5.378V12.378H50.888Z" transform="translate(-31.159 -6.874)" fill="#a29d9d"/>
  <path id="Path_21293" data-name="Path 21293" d="M26.495,20.09H19.639a.741.741,0,0,1-.739-.739V11.639a.741.741,0,0,1,.739-.739h6.856a.741.741,0,0,1,.739.739v7.713A.741.741,0,0,1,26.495,20.09Zm-6.117-1.478h5.378V12.378H20.378Z" transform="translate(-11.919 -6.874)" fill="#a29d9d"/>
</svg>
