<svg xmlns="http://www.w3.org/2000/svg" width="18.582" height="20.755" viewBox="0 0 18.582 20.755">
  <g id="Group_1492" data-name="Group 1492" transform="translate(-613.882 -376.317)">
    <path id="Path_24529" data-name="Path 24529" d="M641.842,470.221c0-.079,0-.159,0-.238a6.962,6.962,0,0,0-13.923,0c0,.08,0,.159,0,.238Z" transform="translate(-11.846 -73.149)" fill="#ef4039"/>
    <path id="Path_24530" data-name="Path 24530" d="M616.791,430.441a1.455,1.455,0,1,1-1.455-1.455A1.455,1.455,0,0,1,616.791,430.441Z" transform="translate(0 -44.435)" fill="#fff"/>
    <circle id="Ellipse_357" data-name="Ellipse 357" cx="1.455" cy="1.455" r="1.455" transform="translate(629.018 387.129) rotate(-78.107)" fill="#fff"/>
    <path id="Path_24531" data-name="Path 24531" d="M638.436,387.23a7.737,7.737,0,1,1-7.737-7.738,7.737,7.737,0,0,1,7.737,7.738" transform="translate(-7.66 -2.679)" fill="#fef0dc"/>
    <path id="Path_24532" data-name="Path 24532" d="M665.447,439.01a1.3,1.3,0,0,1-1.3-1.3h.442a.856.856,0,1,0,1.712,0h.442A1.3,1.3,0,0,1,665.447,439.01Z" transform="translate(-42.408 -51.797)" fill="#ef4039"/>
    <path id="Path_24533" data-name="Path 24533" d="M652.526,432.4a.366.366,0,1,1-.366-.366A.366.366,0,0,1,652.526,432.4Z" transform="translate(-31.985 -47.006)" fill="#023fa1"/>
    <circle id="Ellipse_358" data-name="Ellipse 358" cx="0.366" cy="0.366" r="0.366" transform="translate(625.537 385.027)" fill="#023fa1"/>
    <path id="Path_24534" data-name="Path 24534" d="M639.041,439.357a1.3,1.3,0,1,0,1.3,1.3,1.3,1.3,0,0,0-1.3-1.3" transform="translate(-20.131 -53.185)" fill="#f7e9e7"/>
    <path id="Path_24535" data-name="Path 24535" d="M691.853,439.357a1.3,1.3,0,1,0,1.3,1.3,1.3,1.3,0,0,0-1.3-1.3" transform="translate(-64.686 -53.185)" fill="#f7e9e7"/>
    <path id="Path_24536" data-name="Path 24536" d="M661.467,378.773v-.442a2.017,2.017,0,0,0,2.014-2.014h.442A2.459,2.459,0,0,1,661.467,378.773Z" transform="translate(-40.146 0)" fill="#023fa1"/>
    <path id="Path_24537" data-name="Path 24537" d="M668.616,387.6v-.442a2.017,2.017,0,0,0,2.014-2.014h.442A2.459,2.459,0,0,1,668.616,387.6Z" transform="translate(-46.177 -7.449)" fill="#023fa1"/>
  </g>
</svg>
