<svg id="Group_539" data-name="Group 539" xmlns="http://www.w3.org/2000/svg" width="1934" height="122.303" viewBox="0 0 1934 122.303">
  <path id="Path_21266" data-name="Path 21266" d="M250.03,64.206l-5.94-.442,7.04-14.312,9.62-.226-9.07-.883,9.07-18.434,12.04,24.462-4.26.787h4.64l7.6,15.44L266.23,72.01l15.13-.216,4.9,9.959H235.24L243.73,64.5Z" transform="translate(86.376 -15.555)" fill="#eeecec"/>
  <path id="Path_21267" data-name="Path 21267" d="M274.63,54.483l-3.3-.7,8.43-17.119,11.5-.269-10.85-1.061L291.26,13.29l14.39,29.257-5.09.941h5.55l9.09,18.468L297.81,63.64l18.09-.259L321.77,75.3H260.75L270.9,54.656Z" transform="translate(99.332 -6.912)" fill="#eeecec"/>
  <path id="Path_21268" data-name="Path 21268" d="M586.49,95.511l6.54-13.285,7.38.091-7.21-.442,7.78-15.809,4.39-.1-4.14-.4,8.09-16.443,3.89,7.9-5.41.619h5.71l8.93,18.151-7.23.23,7.63.571,4.52,9.181-11.53,1.219,11.95-.355,1.88,3.82-5.26.6h5.55l6.27,12.723h-53.8l3.47-7.041,11.97.221Z" transform="translate(220.697 -24.703)" fill="#eeecec"/>
  <path id="Path_21269" data-name="Path 21269" d="M1112.1,69.484l12.19-1.55L1111.18,41.3l-6.79-.154,6.41-.629-7.24-14.72-13.27,26.958,12.32.394-12.99.974-11.34,23.056,16.17,1.2-17.15.8-3.6,7.319h59.72l-8.48-17.239Z" transform="translate(408.632 -13.418)" fill="#eeecec"/>
  <path id="Path_21270" data-name="Path 21270" d="M837.84,84.33l6.55-.48-7.76-15.78-10.6-.245,10-.979-10-20.316L812.77,73.493l4.69.869h-5.12L803.96,91.38l16.03,1.555-16.67-.24-5.41,10.981h56.24l-9.36-19.02Z" transform="translate(302.895 -23.369)" fill="#eeecec"/>
  <path id="Path_21271" data-name="Path 21271" d="M1229.71,65.529l-7.66-15.555-8.64.11,8.44-.523-9.11-18.506-5.14-.12,4.85-.475-9.47-19.25-4.56,9.248,6.34.73h-6.69L1187.61,42.44l8.47.269-8.93.672-5.29,10.746,13.49,1.43-13.99-.418-3.58,7.3,6.9.921-7.25-.216-5.95,12.07h62.99l-4.05-8.25-14.02.254Z" transform="translate(516.68 -5.83)" fill="#eeecec"/>
  <path id="Path_21272" data-name="Path 21272" d="M558.58,95.308l-9.93-20.172L534.42,74.8l13.42-1.315-8.91-18.118-10.87.139,10.62-.653L528.06,33.29l-6.39,12.987,4.29.792h-4.68l-8.84,17.978,4.5.518h-4.76l-8.06,16.4,17.39,1.685-18.1-.259-5.86,11.917Z" transform="translate(189.542 -17.313)" fill="#eeecec"/>
  <path id="Path_21273" data-name="Path 21273" d="M1330.71,41.923l-11.7-1.488,12.58-25.557,6.52-.154-6.15-.6L1338.91,0l12.73,25.873-11.82.374,12.46.936,10.89,22.125-15.52,1.147,16.46.763,3.46,7.031h-57.32l8.14-16.548Z" transform="translate(516.68)" fill="#eeecec"/>
  <path id="Path_21274" data-name="Path 21274" d="M0,175.128H1934V106.06l-485.588,19.289-629.1,6.066L0,106.06Z" transform="translate(0 -52.825)" fill="#eeecec"/>
</svg>
