<svg id="Calendar" xmlns="http://www.w3.org/2000/svg" width="13.196" height="14" viewBox="0 0 13.196 14">
  <rect id="Rectangle_557" data-name="Rectangle 557" width="13" height="13" fill="none"/>
  <path id="Path_149" data-name="Path 149" d="M1.65,4.375V12.25h9.9V4.375ZM10.722,1.75h1.65a.8.8,0,0,1,.825.875v10.5a.8.8,0,0,1-.825.875H.825A.8.8,0,0,1,0,13.125V2.625A.8.8,0,0,1,.825,1.75h1.65V.875A.8.8,0,0,1,3.3,0a.8.8,0,0,1,.825.875V1.75H9.072V.875a.826.826,0,1,1,1.65,0ZM9.9,10.5H8.248V8.75H9.9Zm-2.474,0H5.773V8.75h1.65ZM9.9,7.875H8.248V6.125H9.9Zm-2.474,0H5.773V6.125h1.65ZM4.949,10.5H3.3V8.75h1.65Z" fill="#66726e" fill-rule="evenodd"/>
</svg>
