<svg xmlns="http://www.w3.org/2000/svg" width="5.913" height="10.51" viewBox="0 0 5.913 10.51">
  <path id="Path_21551" data-name="Path 21551" d="M-592.031,723.593a3.119,3.119,0,0,0-2.957-3.26,3.119,3.119,0,0,0-2.956,3.26,3.564,3.564,0,0,0,.153,1.031h0l.006.013a3.368,3.368,0,0,0,.359.8l2.44,5.411,2.441-5.413a3.385,3.385,0,0,0,.356-.79l.008-.018h0A3.559,3.559,0,0,0-592.031,723.593Zm-2.957,1.546a1.566,1.566,0,0,1-1.484-1.637,1.566,1.566,0,0,1,1.484-1.637A1.566,1.566,0,0,1-593.5,723.5,1.566,1.566,0,0,1-594.988,725.138Z" transform="translate(597.944 -720.333)" fill="#f89c4e"/>
</svg>
