<svg xmlns="http://www.w3.org/2000/svg" width="63.233" height="54.241" viewBox="0 0 63.233 54.241">
  <g id="Group_965" data-name="Group 965" transform="translate(4558 -3702.865)">
    <path id="Path_21737" data-name="Path 21737" d="M-855.195,215.005a5.939,5.939,0,0,0-2.68-3.945l-19.007-11.914H-893.4L-912.4,211.06a5.94,5.94,0,0,0-2.68,3.945l-1.673,9.064h63.233Z" transform="translate(-3641.245 3533.038)" fill="#8bdaeb"/>
    <path id="Path_21738" data-name="Path 21738" d="M-799.395,215.005a5.939,5.939,0,0,0-2.68-3.945l-19.007-11.914h-8.257v24.923h31.617Z" transform="translate(-3697.045 3533.038)" fill="#070403" opacity="0.1"/>
    <g id="Group_961" data-name="Group 961" transform="translate(-4542.789 3732.184)">
      <path id="Path_21739" data-name="Path 21739" d="M-805.733,204.879l1.247-1.734-6.38-4h-.064c1.415,8.794-.6,19.6-2.4,24.923h4c.669-1.191,6.613-11.907,6.613-16.914Z" transform="translate(835.527 -199.146)" fill="#fff" opacity="0.13"/>
      <path id="Path_21740" data-name="Path 21740" d="M-866.485,199.146h-.064l-6.38,4,1.247,1.734-3.017,2.276c0,5.007,5.944,15.724,6.613,16.914h4C-865.886,218.748-867.9,207.94-866.485,199.146Z" transform="translate(874.698 -199.146)" fill="#fff" opacity="0.15"/>
    </g>
    <g id="Group_962" data-name="Group 962" transform="translate(-4535.053 3732.184)">
      <path id="Path_21741" data-name="Path 21741" d="M-836.446,199.146h-16.386c-1.415,8.794.6,19.6,2.4,24.923h11.577C-837.045,218.748-835.031,207.94-836.446,199.146Z" transform="translate(853.309 -199.146)" fill="#f7fafd"/>
      <path id="Path_21742" data-name="Path 21742" d="M-821.145,199.146h-8.193v24.923h5.789C-821.744,218.748-819.73,207.94-821.145,199.146Z" transform="translate(838.008 -199.146)" fill="#070403" opacity="0.1"/>
      <path id="Path_21743" data-name="Path 21743" d="M-852.832,199.146c-1.415,8.794.6,19.6,2.4,24.923h5.788V199.146Z" transform="translate(853.309 -199.146)" fill="#070403" opacity="0.03"/>
    </g>
    <path id="Path_21744" data-name="Path 21744" d="M-837.241,218.98l2.189-2.306-4.061-2.6-4.061,2.6,2.189,2.306-3.667,14.62h11.077Z" transform="translate(-3687.271 3523.506)" fill="#2e3242"/>
    <path id="Path_21745" data-name="Path 21745" d="M-827.466,218.98l2.189-2.306-4.061-2.6V233.6h5.538Z" transform="translate(-3697.045 3523.506)" opacity="0.1"/>
    <g id="Group_963" data-name="Group 963" transform="translate(-4545.033 3702.865)">
      <path id="Path_21746" data-name="Path 21746" d="M-859.021,118.084H-880.9v.363c0,4.46,1.934,8.238,4.612,9.566v8.4h28.075v-8.163C-848.215,122.637-853.054,118.084-859.021,118.084Z" transform="translate(880.902 -118.084)" fill="#49342b" fill-rule="evenodd"/>
      <path id="Path_21747" data-name="Path 21747" d="M-815.3,128.253c0-5.616-4.839-10.169-10.805-10.169h-3.232v18.332H-815.3Z" transform="translate(847.987 -118.084)" fill="#070403" opacity="0.1"/>
      <path id="Path_21748" data-name="Path 21748" d="M-880.9,118.084v.363c0,4.46,1.934,8.238,4.612,9.566v8.4h14.037V118.084Z" transform="translate(880.902 -118.084)" fill="#fff" opacity="0.13"/>
    </g>
    <path id="Path_21749" data-name="Path 21749" d="M-858.888,169.55a8.768,8.768,0,0,0,9.485,0l4.942-3.187a3.706,3.706,0,0,0,1.668-2.665l.542-4.479a6.435,6.435,0,0,0,2.162-4.245,2.743,2.743,0,0,0-2.162-2.943v-5.077H-866.04v5.077a2.743,2.743,0,0,0-2.162,2.943,6.437,6.437,0,0,0,2.162,4.245l.542,4.479a3.709,3.709,0,0,0,1.668,2.665Z" transform="translate(-3672.238 3566.353)" fill="#eddbce"/>
    <path id="Path_21750" data-name="Path 21750" d="M-817.444,152.032v-5.077h-11.894v23.989a8.744,8.744,0,0,0,4.742-1.393l4.942-3.187a3.706,3.706,0,0,0,1.668-2.665l.542-4.479a6.435,6.435,0,0,0,2.162-4.245A2.743,2.743,0,0,0-817.444,152.032Z" transform="translate(-3697.045 3566.353)" fill="#070403" opacity="0.07"/>
  </g>
</svg>
