<svg id="Group_839" data-name="Group 839" xmlns="http://www.w3.org/2000/svg" xmlns:xlink="http://www.w3.org/1999/xlink" width="12.267" height="12.393" viewBox="0 0 12.267 12.393">
  <defs>
    <clipPath id="clip-path">
      <rect id="Rectangle_1637" data-name="Rectangle 1637" width="12.267" height="12.393" fill="#1e3867"/>
    </clipPath>
  </defs>
  <g id="Group_838" data-name="Group 838" transform="translate(0 0)">
    <g id="Group_837" data-name="Group 837" clip-path="url(#clip-path)">
      <path id="Path_21522" data-name="Path 21522" d="M156.52,270.014h-3.854a1.55,1.55,0,0,0-.188-.534l3.217-1.008a.241.241,0,0,0-.144-.461l-3.4,1.067a1.557,1.557,0,0,0-2.047,0l-3.4-1.067a.241.241,0,1,0-.144.461l3.217,1.008a1.548,1.548,0,0,0-.189.534h-3.854a.728.728,0,0,0-.727.727v8.174a.727.727,0,0,0,.727.727h.116v.467a.241.241,0,1,0,.483,0v-.467h9.595v.467a.241.241,0,1,0,.483,0v-.467h.116a.727.727,0,0,0,.727-.727v-8.174a.727.727,0,0,0-.727-.727Zm-5.4-.837a1.08,1.08,0,0,1,1.051.837h-2.1a1.08,1.08,0,0,1,1.051-.837Zm5.641,9.738a.244.244,0,0,1-.244.244H145.727a.244.244,0,0,1-.244-.244v-8.174a.244.244,0,0,1,.244-.244H156.52a.244.244,0,0,1,.244.244Zm0,0" transform="translate(-145 -267.996)" fill="#1e3867"/>
    </g>
  </g>
  <path id="Path_21523" data-name="Path 21523" d="M176.132,341.412a.241.241,0,0,0-.218-.2,57.171,57.171,0,0,0-9.558,0,.242.242,0,0,0-.218.2,19.969,19.969,0,0,0,0,6.753.242.242,0,0,0,.218.2c1.586.133,3.182.2,4.779.2s3.193-.067,4.779-.2a.242.242,0,0,0,.218-.2,19.961,19.961,0,0,0,0-6.753Zm-.445,6.488a56.729,56.729,0,0,1-9.1,0,19.483,19.483,0,0,1,0-6.222,56.686,56.686,0,0,1,9.1,0,19.48,19.48,0,0,1,0,6.222Zm0,0" transform="translate(-165.012 -338.069)" fill="#1e3867"/>
  <path id="Path_21524" data-name="Path 21524" d="M394.34,402.943a.242.242,0,0,0-.228.254,18.69,18.69,0,0,1-.034,2.552.241.241,0,0,0,.221.26h.02a.242.242,0,0,0,.24-.222,19.168,19.168,0,0,0,.035-2.618.241.241,0,0,0-.254-.228Zm0,0" transform="translate(-384.053 -397.508)" fill="#1e3867"/>
  <path id="Path_21525" data-name="Path 21525" d="M391.663,366.632h.024a.242.242,0,0,0,.217-.264c-.024-.248-.053-.5-.087-.746a.241.241,0,1,0-.479.065c.033.241.061.486.085.727a.241.241,0,0,0,.24.218Zm0,0" transform="translate(-381.422 -361.488)" fill="#1e3867"/>
  <path id="Path_21526" data-name="Path 21526" d="M420.873,527.722a.241.241,0,1,0,.093.282.243.243,0,0,0-.093-.282Zm0,0" transform="translate(-409.41 -517.227)" fill="#1e3867"/>
</svg>
