<svg id="Group_587" data-name="Group 587" xmlns="http://www.w3.org/2000/svg" xmlns:xlink="http://www.w3.org/1999/xlink" width="25.091" height="25.218" viewBox="0 0 25.091 25.218">
  <defs>
    <clipPath id="clip-path">
      <rect id="Rectangle_1500" data-name="Rectangle 1500" width="25.091" height="25.218" fill="#fff"/>
    </clipPath>
  </defs>
  <g id="Group_586" data-name="Group 586">
    <g id="Group_583" data-name="Group 583" clip-path="url(#clip-path)">
      <path id="Path_21347" data-name="Path 21347" d="M19.817,36.895a2.468,2.468,0,0,0-1.79-.821,2.552,2.552,0,0,0-1.811.816l-1.674,1.668c-.138-.074-.275-.143-.408-.212-.191-.1-.371-.185-.524-.281A18.192,18.192,0,0,1,9.25,34.093a10.732,10.732,0,0,1-1.43-2.256c.434-.4.837-.81,1.229-1.208.148-.148.3-.3.445-.45a2.43,2.43,0,0,0,0-3.665L8.047,25.067c-.164-.164-.334-.334-.493-.5-.318-.328-.651-.667-1-.985A2.507,2.507,0,0,0,4.784,22.8a2.6,2.6,0,0,0-1.8.779l-.011.011-1.8,1.817A3.875,3.875,0,0,0,.023,27.869,9.285,9.285,0,0,0,.7,31.8a22.806,22.806,0,0,0,4.052,6.759,24.926,24.926,0,0,0,8.3,6.5,12.932,12.932,0,0,0,4.661,1.377c.111.005.228.011.334.011A3.991,3.991,0,0,0,21.1,45.131c.005-.011.016-.016.021-.026a12.039,12.039,0,0,1,.927-.959c.228-.217.461-.445.689-.683a2.642,2.642,0,0,0,.8-1.833,2.546,2.546,0,0,0-.816-1.817Zm1.9,5.577c-.005,0-.005.005,0,0-.207.222-.418.424-.646.646a13.928,13.928,0,0,0-1.022,1.059,2.553,2.553,0,0,1-1.992.842c-.079,0-.164,0-.244-.005a11.488,11.488,0,0,1-4.131-1.239A23.529,23.529,0,0,1,5.86,37.652,21.5,21.5,0,0,1,2.046,31.3a7.563,7.563,0,0,1-.593-3.316,2.431,2.431,0,0,1,.731-1.573L3.99,24.606a1.2,1.2,0,0,1,.805-.376,1.133,1.133,0,0,1,.773.371l.016.016c.323.3.63.614.953.948.164.169.334.339.5.514l1.446,1.446a1.011,1.011,0,0,1,0,1.642c-.154.154-.3.307-.456.456-.445.456-.869.879-1.329,1.292-.011.011-.021.016-.026.026a1.08,1.08,0,0,0-.275,1.2l.016.048a11.609,11.609,0,0,0,1.711,2.791l.005.005a19.441,19.441,0,0,0,4.7,4.28,7.23,7.23,0,0,0,.651.355c.191.1.371.185.524.281.021.011.042.026.064.037a1.148,1.148,0,0,0,.524.132,1.133,1.133,0,0,0,.805-.365L17.216,37.9a1.2,1.2,0,0,1,.8-.4,1.079,1.079,0,0,1,.763.387l2.929,2.929a1.047,1.047,0,0,1,.005,1.658Zm0,0" transform="translate(-0.001 -21.29)" fill="#fff"/>
    </g>
    <g id="Group_584" data-name="Group 584" clip-path="url(#clip-path)">
      <path id="Path_21348" data-name="Path 21348" d="M196.269,71.034a6.817,6.817,0,0,1,5.551,5.551.711.711,0,0,0,.7.593.947.947,0,0,0,.122-.011.716.716,0,0,0,.588-.826,8.243,8.243,0,0,0-6.716-6.716.719.719,0,0,0-.826.583.707.707,0,0,0,.577.826Zm0,0" transform="translate(-182.724 -65.006)" fill="#fff"/>
    </g>
    <g id="Group_585" data-name="Group 585" clip-path="url(#clip-path)">
      <path id="Path_21349" data-name="Path 21349" d="M210.636,11.946A13.573,13.573,0,0,0,199.576.886a.714.714,0,1,0-.233,1.409,12.123,12.123,0,0,1,9.884,9.884.711.711,0,0,0,.7.593.946.946,0,0,0,.122-.011.7.7,0,0,0,.583-.816Zm0,0" transform="translate(-185.587 -0.817)" fill="#fff"/>
    </g>
  </g>
</svg>
