<svg xmlns="http://www.w3.org/2000/svg" width="33.589" height="32.355" viewBox="0 0 33.589 32.355">
  <path id="plane" d="M174.073,268.722l-12.9-7.039a.991.991,0,0,1-.515-.926l.28-4.954c0-.029,0-.057,0-.086-.017-1.992-1.236-4.1-3.131-4.1s-3.114,2.107-3.131,4.1c0,.029,0,.057,0,.086l.279,4.944a.991.991,0,0,1-.515.926l-12.923,7.049a.991.991,0,0,0-.516.87v1.294a.991.991,0,0,0,1.246.957l5.053-1.348v.666a.75.75,0,0,0,1.5,0v-1.066l1.961-.523v1.59a.75.75,0,0,0,1.5,0v-1.97c0-.007,0-.012,0-.019l1.95-.52a.991.991,0,0,1,1.245.9l.469,8.326a.991.991,0,0,1-.405.856L151,282.03a.991.991,0,0,0-.407.8v.151a.991.991,0,0,0,1.365.917l3.264-1.332a1,1,0,0,1,1.238.434,1.647,1.647,0,0,0,1.346.824,1.552,1.552,0,0,0,1.364-.792,1,1,0,0,1,1.235-.453l3.233,1.319a.991.991,0,0,0,1.365-.917v-.151a.991.991,0,0,0-.407-.8l-4.5-3.285a.991.991,0,0,1-.405-.856l.47-8.331a.991.991,0,0,1,1.245-.9l1.93.515c0,.006,0,.012,0,.019v1.97a.75.75,0,0,0,1.5,0v-1.59l1.961.523v1.066a.75.75,0,0,0,1.5,0v-.666l5.053,1.348a.991.991,0,0,0,1.246-.957v-1.294A.991.991,0,0,0,174.073,268.722Z" transform="translate(-141 -251.618)" fill="#265979"/>
</svg>
