<svg id="Component_12_1" data-name="Component 12 – 1" xmlns="http://www.w3.org/2000/svg" width="444.816" height="143.499" viewBox="0 0 444.816 143.499">
  <g id="Group_545" data-name="Group 545" transform="translate(201.251 60)">
    <g id="Group_541" data-name="Group 541" transform="translate(167.283 -60)">
      <g id="Group_540" data-name="Group 540">
        <path id="Path_21275" data-name="Path 21275" d="M246.8,65.649a.482.482,0,0,1-.426-.257.49.49,0,0,1,.036-.516l11.518-15.713.782.574-10.923,14.9,4.19-.186,21.077-16.11a.485.485,0,0,1,.24-.1c.123-.015,12.305-1.383,15.766-2.138,1.615-.354,2.64-.86,3.044-1.506a1.538,1.538,0,0,0,.138-1.242c-.143-.6-1.6-1.184-2.548-1.393a.5.5,0,0,1-.14-.056,17.157,17.157,0,0,0-5.953-1.758c-3.735-.467-46.439,5.616-46.87,5.677a.481.481,0,0,1-.334-.075l-13.57-8.857-4.3-.044,10.908,12.993-.741.622L217.1,36.667a.485.485,0,0,1,.375-.8l5.5.056a.473.473,0,0,1,.259.08l13.536,8.835c3.449-.492,43.172-6.125,46.948-5.655a18.142,18.142,0,0,1,6.253,1.845c.62.143,2.889.756,3.209,2.095a2.481,2.481,0,0,1-.262,1.984c-.557.886-1.753,1.521-3.659,1.937-3.354.731-14.32,1.981-15.732,2.141l-21.092,16.12a.484.484,0,0,1-.274.1l-5.352.24S246.8,65.649,246.8,65.649Z" transform="translate(-216.992 -27.183)" fill="#a29d9d"/>
        <rect id="Rectangle_1469" data-name="Rectangle 1469" width="25.57" height="0.969" transform="translate(15.822 24.188) rotate(-5.377)" fill="#a29d9d"/>
        <path id="Path_21276" data-name="Path 21276" d="M304.741,16.592,289.236.823A.485.485,0,0,1,289.587,0l4.471.046a.48.48,0,0,1,.23.061l25.059,13.872-.47.848L293.925,1.012,290.75.981l14.681,14.933Z" transform="translate(-271.634)" fill="#a29d9d"/>
        <path id="Path_21277" data-name="Path 21277" d="M449.7,88.95" transform="translate(-393.341 -67.408)" fill="none" stroke="#000" stroke-linejoin="round" stroke-miterlimit="10" stroke-width="4"/>
        <path id="Path_21278" data-name="Path 21278" d="M243.623,86.616l-6.159-.124A.483.483,0,0,1,236.99,86l.024-2.456a.486.486,0,0,1,.414-.475l4.589-.683.143.959-4.183.622-.017,1.562,5.679.114Z" transform="translate(-232.147 -62.436)" fill="#a29d9d"/>
        <path id="Path_21279" data-name="Path 21279" d="M247.845,97.179h0l-4.03-.041a.484.484,0,0,1-.407-.739l6.035-9.779a.489.489,0,0,1,.426-.23l4.836.143a.485.485,0,0,1,.38.765l-6.842,9.678A.48.48,0,0,1,247.845,97.179Zm-3.168-1,2.918.029,6.173-8.733-3.655-.107Z" transform="translate(-236.952 -65.467)" fill="#a29d9d"/>
      </g>
    </g>
    <path id="Path_21280" data-name="Path 21280" d="M33.95,222.093H.012L0,221.573c0-.029,0-.061,0-.092a7.8,7.8,0,0,1,10.4-7.355,10.977,10.977,0,0,1,18.171,2.867,4.566,4.566,0,0,1,5.391,4.488c0,.039,0,.075,0,.114ZM.978,221.125h32a3.6,3.6,0,0,0-3.577-3.238,3.541,3.541,0,0,0-.981.138l-.419.119-.162-.4a10.011,10.011,0,0,0-16.924-2.727l-.228.266-.325-.131a6.833,6.833,0,0,0-9.387,5.977Z" transform="translate(0 -146.01)" fill="#a29d9d"/>
    <path id="Path_21281" data-name="Path 21281" d="M190.64,169.753H156.7l-.01-.521c0-.031,0-.061,0-.092a7.8,7.8,0,0,1,10.4-7.355,10.978,10.978,0,0,1,18.171,2.865,4.566,4.566,0,0,1,5.391,4.488c0,.039,0,.075,0,.114Zm-32.969-.969h32a3.6,3.6,0,0,0-3.577-3.238,3.54,3.54,0,0,0-.981.138l-.419.119-.162-.4a10.011,10.011,0,0,0-16.924-2.727l-.228.266-.325-.131a6.771,6.771,0,0,0-2.562-.5A6.842,6.842,0,0,0,157.671,168.785Z" transform="translate(-95.13 -110.995)" fill="#a29d9d"/>
    <g id="Group_542" data-name="Group 542" transform="translate(12.474 48.497)">
      <rect id="Rectangle_1470" data-name="Rectangle 1470" width="1.453" height="11.327" transform="translate(0 1.453) rotate(-89.416)" fill="#a29d9d"/>
      <rect id="Rectangle_1471" data-name="Rectangle 1471" width="1.453" height="3.776" transform="matrix(0.01, -1, 1, 0.01, 14.39, 1.755)" fill="#a29d9d"/>
    </g>
    <g id="Group_543" data-name="Group 543" transform="translate(60.981 81.711)">
      <rect id="Rectangle_1472" data-name="Rectangle 1472" width="1.453" height="11.327" transform="translate(0 1.453) rotate(-89.416)" fill="#a29d9d"/>
      <rect id="Rectangle_1473" data-name="Rectangle 1473" width="1.453" height="3.776" transform="matrix(0.01, -1, 1, 0.01, 14.386, 1.75)" fill="#a29d9d"/>
    </g>
    <g id="Group_544" data-name="Group 544" transform="translate(116.673 48.683)">
      <rect id="Rectangle_1474" data-name="Rectangle 1474" width="1.453" height="11.327" transform="translate(0 1.453) rotate(-89.416)" fill="#a29d9d"/>
      <rect id="Rectangle_1475" data-name="Rectangle 1475" width="1.453" height="3.776" transform="matrix(0.01, -1, 1, 0.01, 14.385, 1.755)" fill="#a29d9d"/>
    </g>
  </g>
  <path id="Path_21297" data-name="Path 21297" d="M95.834,32.719H.034L.007,31.25C0,31.161,0,31.079,0,30.99A22.032,22.032,0,0,1,29.37,10.227a30.992,30.992,0,0,1,51.294,8.1A12.89,12.89,0,0,1,95.882,31c0,.1,0,.205-.007.308ZM2.762,29.985H93.1A10.162,10.162,0,0,0,83,20.844a10,10,0,0,0-2.769.39l-1.183.335-.458-1.142a28.265,28.265,0,0,0-47.78-7.7l-.643.752-.916-.369A19.283,19.283,0,0,0,2.762,29.985Z" transform="translate(0 88.069)" fill="#a29d9d" opacity="0.53"/>
</svg>
