<svg id="socket" xmlns="http://www.w3.org/2000/svg" width="10.484" height="10.484" viewBox="0 0 10.484 10.484">
  <path id="Path_21527" data-name="Path 21527" d="M106.515,240.374h7.454a1.517,1.517,0,0,0,1.515-1.515v-7.454a1.517,1.517,0,0,0-1.515-1.515h-7.454A1.517,1.517,0,0,0,105,231.405v7.454a1.517,1.517,0,0,0,1.515,1.515Zm-.532-8.969a.533.533,0,0,1,.532-.532h7.454a.533.533,0,0,1,.532.532v7.454a.533.533,0,0,1-.532.532h-7.454a.533.533,0,0,1-.532-.532Zm0,0" transform="translate(-105 -229.89)" fill="#1e3867"/>
  <path id="Path_21528" data-name="Path 21528" d="M243.491,425h1.966a.491.491,0,0,0,.491-.491V423.2a1.312,1.312,0,0,0-1.311-1.311h-.328A1.312,1.312,0,0,0,243,423.2v1.311a.491.491,0,0,0,.491.491Zm.491-1.8a.328.328,0,0,1,.328-.328h.328a.328.328,0,0,1,.328.328v.819h-.983Zm0,0" transform="translate(-239.232 -416.648)" fill="#1e3867"/>
  <path id="Path_21529" data-name="Path 21529" d="M177.819,305.166a.82.82,0,0,0,.819-.819v-1.638a.819.819,0,1,0-1.638,0v1.638a.819.819,0,0,0,.819.819Zm0,0" transform="translate(-175.034 -299.924)" fill="#1e3867"/>
  <path id="Path_21530" data-name="Path 21530" d="M357.819,305.166a.82.82,0,0,0,.819-.819v-1.638a.819.819,0,1,0-1.638,0v1.638a.819.819,0,0,0,.819.819Zm0,0" transform="translate(-350.12 -299.924)" fill="#1e3867"/>
</svg>
