<svg xmlns="http://www.w3.org/2000/svg" width="59.456" height="68.34" viewBox="0 0 59.456 68.34">
  <g id="Group_547" data-name="Group 547" transform="translate(0.008)">
    <path id="Path_21294" data-name="Path 21294" d="M109.889,159.5a17.059,17.059,0,1,1,17.059-17.059A17.079,17.079,0,0,1,109.889,159.5Zm0-33.574A16.513,16.513,0,1,0,126.4,142.438,16.532,16.532,0,0,0,109.889,125.925Z" transform="translate(-80.168 -108.269)" fill="#a7a3a3"/>
    <rect id="Rectangle_1476" data-name="Rectangle 1476" width="0.546" height="17.383" transform="translate(29.448)" fill="#a7a3a3"/>
    <rect id="Rectangle_1477" data-name="Rectangle 1477" width="0.546" height="10.057" transform="matrix(0.866, -0.5, 0.5, 0.866, 16.063, 11.059)" fill="#a7a3a3"/>
    <rect id="Rectangle_1478" data-name="Rectangle 1478" width="0.546" height="17.383" transform="matrix(0.5, -0.866, 0.866, 0.5, -0.008, 17.322)" fill="#a7a3a3"/>
    <rect id="Rectangle_1479" data-name="Rectangle 1479" width="8.692" height="0.546" transform="translate(4.243 33.898)" fill="#a7a3a3"/>
    <rect id="Rectangle_1480" data-name="Rectangle 1480" width="17.383" height="0.546" transform="matrix(0.866, -0.5, 0.5, 0.866, -0.008, 51.018)" fill="#a7a3a3"/>
    <rect id="Rectangle_1481" data-name="Rectangle 1481" width="10.057" height="0.546" transform="matrix(0.5, -0.866, 0.866, 0.5, 16.063, 57.279)" fill="#a7a3a3"/>
    <rect id="Rectangle_1482" data-name="Rectangle 1482" width="0.546" height="17.383" transform="translate(29.448 50.957)" fill="#a7a3a3"/>
    <rect id="Rectangle_1483" data-name="Rectangle 1483" width="0.546" height="8.692" transform="matrix(0.866, -0.5, 0.5, 0.866, 37.877, 48.842)" fill="#a7a3a3"/>
    <rect id="Rectangle_1484" data-name="Rectangle 1484" width="0.546" height="17.383" transform="matrix(0.5, -0.866, 0.866, 0.5, 44.121, 42.8)" fill="#a7a3a3"/>
    <rect id="Rectangle_1485" data-name="Rectangle 1485" width="10.519" height="0.546" transform="translate(46.508 33.898)" fill="#a7a3a3"/>
    <rect id="Rectangle_1486" data-name="Rectangle 1486" width="17.383" height="0.546" transform="matrix(0.866, -0.5, 0.5, 0.866, 44.121, 25.541)" fill="#a7a3a3"/>
    <rect id="Rectangle_1487" data-name="Rectangle 1487" width="10.057" height="0.546" transform="translate(37.878 19.494) rotate(-60.007)" fill="#a7a3a3"/>
  </g>
</svg>
