<svg xmlns="http://www.w3.org/2000/svg" width="273.299" height="77.05" viewBox="0 0 273.299 77.05">
  <g id="Group_2274" data-name="Group 2274" transform="translate(-568.203 -315.448)">
    <g id="Group_2261" data-name="Group 2261">
      <path id="Path_25554" data-name="Path 25554" d="M829.927,392.5H579.778A11.587,11.587,0,0,1,568.2,380.923V327.074A11.588,11.588,0,0,1,579.778,315.5H829.927A11.588,11.588,0,0,1,841.5,327.074v53.849A11.587,11.587,0,0,1,829.927,392.5Zm-250.149-74a8.585,8.585,0,0,0-8.575,8.576v53.849a8.584,8.584,0,0,0,8.575,8.575H829.927a8.584,8.584,0,0,0,8.575-8.575V327.074a8.585,8.585,0,0,0-8.575-8.576Z" fill="#06205c"/>
    </g>
    <g id="Group_2262" data-name="Group 2262">
      <path id="Path_25555" data-name="Path 25555" d="M796.5,389.448a1.5,1.5,0,0,1-1.5-1.5v-1a1.5,1.5,0,0,1,3,0v1A1.5,1.5,0,0,1,796.5,389.448Zm0-7a1.5,1.5,0,0,1-1.5-1.5v-1a1.5,1.5,0,0,1,3,0v1A1.5,1.5,0,0,1,796.5,382.448Zm0-7a1.5,1.5,0,0,1-1.5-1.5v-1a1.5,1.5,0,0,1,3,0v1A1.5,1.5,0,0,1,796.5,375.448Zm0-7a1.5,1.5,0,0,1-1.5-1.5v-1a1.5,1.5,0,0,1,3,0v1A1.5,1.5,0,0,1,796.5,368.448Zm0-7a1.5,1.5,0,0,1-1.5-1.5v-1a1.5,1.5,0,0,1,3,0v1A1.5,1.5,0,0,1,796.5,361.448Zm0-7a1.5,1.5,0,0,1-1.5-1.5v-1a1.5,1.5,0,0,1,3,0v1A1.5,1.5,0,0,1,796.5,354.448Zm0-7a1.5,1.5,0,0,1-1.5-1.5v-1a1.5,1.5,0,0,1,3,0v1A1.5,1.5,0,0,1,796.5,347.448Zm0-7a1.5,1.5,0,0,1-1.5-1.5v-1a1.5,1.5,0,0,1,3,0v1A1.5,1.5,0,0,1,796.5,340.448Zm0-7a1.5,1.5,0,0,1-1.5-1.5v-1a1.5,1.5,0,0,1,3,0v1A1.5,1.5,0,0,1,796.5,333.448Zm0-7a1.5,1.5,0,0,1-1.5-1.5v-1a1.5,1.5,0,0,1,3,0v1A1.5,1.5,0,0,1,796.5,326.448Zm0-7a1.5,1.5,0,0,1-1.5-1.5v-1a1.5,1.5,0,0,1,3,0v1A1.5,1.5,0,0,1,796.5,319.448Z" fill="#06205c"/>
    </g>
    <g id="Group_2263" data-name="Group 2263">
      <rect id="Rectangle_2822" data-name="Rectangle 2822" width="17.561" height="2" transform="translate(811.998 344.682)" fill="#06205c"/>
    </g>
    <g id="Group_2264" data-name="Group 2264">
      <rect id="Rectangle_2823" data-name="Rectangle 2823" width="17.561" height="2" transform="translate(811.998 348.007)" fill="#06205c"/>
    </g>
    <g id="Group_2265" data-name="Group 2265">
      <rect id="Rectangle_2824" data-name="Rectangle 2824" width="17.514" height="3" transform="translate(811.998 352.128)" fill="#06205c"/>
    </g>
    <g id="Group_2266" data-name="Group 2266">
      <rect id="Rectangle_2825" data-name="Rectangle 2825" width="17.514" height="3" transform="translate(811.998 356.167)" fill="#06205c"/>
    </g>
    <g id="Group_2267" data-name="Group 2267">
      <rect id="Rectangle_2826" data-name="Rectangle 2826" width="17.561" height="2" transform="translate(811.998 360.221)" fill="#06205c"/>
    </g>
    <g id="Group_2268" data-name="Group 2268">
      <rect id="Rectangle_2827" data-name="Rectangle 2827" width="17.514" height="3" transform="translate(811.998 373.353)" fill="#06205c"/>
    </g>
    <g id="Group_2269" data-name="Group 2269">
      <rect id="Rectangle_2828" data-name="Rectangle 2828" width="17.514" height="3" transform="translate(811.998 369.737)" fill="#06205c"/>
    </g>
    <g id="Group_2270" data-name="Group 2270">
      <rect id="Rectangle_2829" data-name="Rectangle 2829" width="17.561" height="3" transform="translate(811.998 365.698)" fill="#06205c"/>
    </g>
    <g id="Group_2271" data-name="Group 2271">
      <rect id="Rectangle_2830" data-name="Rectangle 2830" width="17.514" height="3" transform="translate(811.998 331.744)" fill="#06205c"/>
    </g>
    <g id="Group_2272" data-name="Group 2272">
      <rect id="Rectangle_2831" data-name="Rectangle 2831" width="17.514" height="3" transform="translate(811.998 334.359)" fill="#06205c"/>
    </g>
    <g id="Group_2273" data-name="Group 2273">
      <rect id="Rectangle_2832" data-name="Rectangle 2832" width="17.561" height="3" transform="translate(811.998 338.397)" fill="#06205c"/>
    </g>
  </g>
</svg>
