<svg xmlns="http://www.w3.org/2000/svg" xmlns:xlink="http://www.w3.org/1999/xlink" width="62" height="28" viewBox="0 0 62 28">
  <defs>
    <clipPath id="clip-path">
      <rect id="Rectangle_1655" data-name="Rectangle 1655" width="62" height="28" transform="translate(0.016)" fill="none"/>
    </clipPath>
  </defs>
  <g id="Group_921" data-name="Group 921" transform="translate(-0.016)" clip-path="url(#clip-path)">
    <path id="Path_21542" data-name="Path 21542" d="M117.129,319.795l-3.122-6.88a6.91,6.91,0,0,0-6.259-4.025H62.988A5.994,5.994,0,0,0,57,314.878v14.964a3.286,3.286,0,0,0,3.282,3.282h4.9a5.048,5.048,0,0,0,9.895,0H99.509a5.048,5.048,0,0,0,9.895,0h5.372a2.809,2.809,0,0,0,2.807-2.807v-8.431a5.03,5.03,0,0,0-.454-2.09Zm-2.189.066-9.474-.793v-4.241l6.808-.851ZM70.126,335.143a3.029,3.029,0,1,1,3.029-3.029,3.029,3.029,0,0,1-3.029,3.029Zm34.33,0a3.029,3.029,0,1,1,3.029-3.029,3.029,3.029,0,0,1-3.029,3.029Zm10.319-4.039H109.4a5.048,5.048,0,0,0-9.895,0H75.074a5.048,5.048,0,0,0-9.895,0h-4.9a1.264,1.264,0,0,1-1.262-1.262V314.878a3.972,3.972,0,0,1,3.968-3.968h44.76a4.866,4.866,0,0,1,3.192,1.2l-6.546.818H65.078a1.01,1.01,0,0,0-1.01,1.01V320a1.01,1.01,0,0,0,1.01,1.01h39.336l11.149.929v8.381a.789.789,0,0,1-.787.787ZM66.087,318.987v-4.039h7.068v4.039Zm9.087-4.039h8.078v4.039H75.175Zm10.1,0H92.34v4.039H85.272Zm9.087,0h9.087v4.039H94.359Zm0,0" transform="translate(-56.519 -308.802)"/>
  </g>
</svg>
