<svg id="Group_579" data-name="Group 579" xmlns="http://www.w3.org/2000/svg" width="111.362" height="86.806" viewBox="0 0 111.362 86.806">
  <g id="Group_578" data-name="Group 578" transform="translate(0 0)">
    <path id="Path_21298" data-name="Path 21298" d="M107.652,96.585h-8.7a1.112,1.112,0,0,1-1.116-1.026,3.616,3.616,0,0,0-7.2,0,1.129,1.129,0,0,1-1.116,1.026H28.391a8.681,8.681,0,0,1-8.671-8.671V47.591a8.681,8.681,0,0,1,8.671-8.671H89.486a1.122,1.122,0,0,1,1.123,1.123,3.617,3.617,0,1,0,7.233,0,1.122,1.122,0,0,1,1.123-1.123h8.679a8.681,8.681,0,0,1,8.671,8.671V87.914A8.675,8.675,0,0,1,107.652,96.585Z" transform="translate(-4.953 -9.779)" fill="#4a504c"/>
    <path id="Path_21299" data-name="Path 21299" d="M100.64,95.092h7.765a6.433,6.433,0,0,0,6.425-6.425V48.345a6.433,6.433,0,0,0-6.425-6.425h-7.668a5.868,5.868,0,0,1-11.517,0H29.145a6.433,6.433,0,0,0-6.425,6.425V88.668a6.433,6.433,0,0,0,6.425,6.425H89.326a5.864,5.864,0,0,1,11.314,0Z" transform="translate(-5.707 -10.533)" fill="#f5f5f5"/>
    <g id="Group_557" data-name="Group 557" transform="translate(33.479 64.948)">
      <path id="Path_21300" data-name="Path 21300" d="M78.032,88.986h-.749a1.123,1.123,0,0,1,0-2.246h.749a1.123,1.123,0,0,1,0,2.246Zm-5.242,0h-.749a1.123,1.123,0,0,1,0-2.246h.749a1.123,1.123,0,0,1,0,2.246Zm-5.242,0H66.8a1.123,1.123,0,0,1,0-2.246h.749a1.123,1.123,0,0,1,0,2.246Zm-5.242,0h-.749a1.123,1.123,0,0,1,0-2.246h.749a1.123,1.123,0,0,1,0,2.246Zm-5.242,0h-.749a1.123,1.123,0,1,1,0-2.246h.749a1.123,1.123,0,1,1,0,2.246Zm-5.242,0h-.749a1.123,1.123,0,0,1,0-2.246h.749a1.123,1.123,0,1,1,0,2.246Zm-5.242,0h-.749a1.123,1.123,0,1,1,0-2.246h.749a1.123,1.123,0,0,1,0,2.246Z" transform="translate(-44.71 -86.74)" fill="#4a504c"/>
    </g>
    <g id="Group_558" data-name="Group 558" transform="translate(38.601 39.759)">
      <path id="Path_21301" data-name="Path 21301" d="M72.374,55.346h-19.7a1.123,1.123,0,0,1,0-2.246h19.7a1.123,1.123,0,0,1,0,2.246Z" transform="translate(-51.55 -53.1)" fill="#4a504c"/>
    </g>
    <g id="Group_559" data-name="Group 559" transform="translate(42.487 44.042)">
      <path id="Path_21302" data-name="Path 21302" d="M69.8,61.066H57.863a1.123,1.123,0,0,1,0-2.246H69.8a1.123,1.123,0,0,1,0,2.246Z" transform="translate(-56.74 -58.82)" fill="#4a504c"/>
    </g>
    <g id="Group_560" data-name="Group 560" transform="translate(54.528 74.376)">
      <path id="Path_21303" data-name="Path 21303" d="M77.9,101.576H73.943a1.123,1.123,0,1,1,0-2.246H77.9a1.123,1.123,0,1,1,0,2.246Z" transform="translate(-72.82 -99.33)" fill="#4a504c"/>
    </g>
    <g id="Group_561" data-name="Group 561" transform="translate(32.865 74.376)">
      <path id="Path_21304" data-name="Path 21304" d="M57.563,101.576H45.013a1.123,1.123,0,1,1,0-2.246H57.571a1.123,1.123,0,1,1-.007,2.246Z" transform="translate(-43.89 -99.33)" fill="#4a504c"/>
    </g>
    <g id="Group_562" data-name="Group 562" transform="translate(62.271 74.376)">
      <path id="Path_21305" data-name="Path 21305" d="M88.244,101.576H84.283a1.123,1.123,0,1,1,0-2.246h3.961a1.123,1.123,0,1,1,0,2.246Z" transform="translate(-83.16 -99.33)" fill="#4a504c"/>
    </g>
    <g id="Group_563" data-name="Group 563" transform="translate(33.741 52.481)">
      <path id="Path_21306" data-name="Path 21306" d="M46.872,71.416H45.06V70.24h5.054v1.176H48.3v5.107h-1.43Z" transform="translate(-45.06 -70.128)" fill="#4a504c"/>
      <path id="Path_21307" data-name="Path 21307" d="M55.608,70.24v6.29H54.17V70.24Z" transform="translate(-47.348 -70.128)" fill="#4a504c"/>
      <path id="Path_21308" data-name="Path 21308" d="M61.783,70.09a2.947,2.947,0,0,1,2.666,1.453l-1.183.584a1.6,1.6,0,0,0-1.43-.846c-.936,0-1.67.711-1.67,2.059S60.9,75.4,61.835,75.4a1.611,1.611,0,0,0,1.43-.846l1.183.584a3.172,3.172,0,1,1-2.666-5.047Z" transform="translate(-48.491 -70.09)" fill="#4a504c"/>
      <path id="Path_21309" data-name="Path 21309" d="M70.24,73.075l2.029-2.838h1.58l-1.977,2.583,2.254,3.7H72.509l-1.483-2.568-.786,1.026V76.52H68.81V70.23h1.43Z" transform="translate(-51.026 -70.125)" fill="#4a504c"/>
      <path id="Path_21310" data-name="Path 21310" d="M78.107,70.24h4.2v1.138H79.53v1.348h2.464v1.138H79.53v1.52h2.853v1.138H78.1V70.24Z" transform="translate(-53.36 -70.128)" fill="#4a504c"/>
      <path id="Path_21311" data-name="Path 21311" d="M87.552,71.416H85.74V70.24h5.054v1.176H88.982v5.107h-1.43Z" transform="translate(-55.279 -70.128)" fill="#4a504c"/>
    </g>
    <g id="Group_564" data-name="Group 564" transform="translate(84.675 40.5)">
      <path id="Path_21312" data-name="Path 21312" d="M117.738,63.405a4.658,4.658,0,1,1,4.658-4.658A4.663,4.663,0,0,1,117.738,63.405Zm0-7.076a2.411,2.411,0,1,0,2.411,2.411A2.414,2.414,0,0,0,117.738,56.329Z" transform="translate(-113.08 -54.09)" fill="#4a504c"/>
    </g>
    <g id="Group_565" data-name="Group 565" transform="translate(84.675 53.851)">
      <path id="Path_21313" data-name="Path 21313" d="M117.738,81.235a4.658,4.658,0,1,1,4.658-4.658A4.663,4.663,0,0,1,117.738,81.235Zm0-7.076a2.411,2.411,0,1,0,2.411,2.411A2.414,2.414,0,0,0,117.738,74.159Z" transform="translate(-113.08 -71.92)" fill="#4a504c"/>
    </g>
    <g id="Group_566" data-name="Group 566" transform="translate(84.675 67.195)">
      <path id="Path_21314" data-name="Path 21314" d="M117.738,99.055A4.658,4.658,0,1,1,122.4,94.4,4.663,4.663,0,0,1,117.738,99.055Zm0-7.076a2.411,2.411,0,1,0,2.411,2.411A2.414,2.414,0,0,0,117.738,91.979Z" transform="translate(-113.08 -89.74)" fill="#4a504c"/>
    </g>
    <g id="Group_577" data-name="Group 577" transform="translate(0 0)">
      <path id="Path_21315" data-name="Path 21315" d="M101.058,53.33l-7.93,3.579a1.123,1.123,0,0,1-1.438-.472A3.617,3.617,0,0,0,85.124,59.4a1.12,1.12,0,0,1-.6,1.393L28.806,85.911a8.679,8.679,0,0,1-11.464-4.343L.764,44.8A8.684,8.684,0,0,1,5.107,33.338L60.8,8.23a1.124,1.124,0,0,1,1.483.562,3.621,3.621,0,0,0,6.6-2.973,1.122,1.122,0,0,1,.562-1.483L77.366.772A8.664,8.664,0,0,1,88.823,5.108l16.571,36.759A8.67,8.67,0,0,1,101.058,53.33Z" transform="translate(0 -0.004)" fill="#4a504c"/>
      <path id="Path_21316" data-name="Path 21316" d="M93.814,55.229l7.076-3.19a6.421,6.421,0,0,0,3.212-8.491L87.532,6.781a6.421,6.421,0,0,0-8.491-3.212L72.054,6.721a5.867,5.867,0,0,1-10.5,4.732L6.781,36.142a6.421,6.421,0,0,0-3.212,8.491L20.14,81.392A6.421,6.421,0,0,0,28.631,84.6L83.5,59.871a5.864,5.864,0,0,1,10.318-4.643Z" transform="translate(-0.753 -0.756)" fill="#f5f5f5"/>
      <g id="Group_567" data-name="Group 567" transform="translate(29.344 48.054)">
        <path id="Path_21317" data-name="Path 21317" d="M70.122,66.321l-.681.307a1.121,1.121,0,0,1-.921-2.044l.681-.307a1.121,1.121,0,0,1,.921,2.044Zm-4.777,2.157-.681.307a1.121,1.121,0,1,1-.921-2.044l.681-.307a1.121,1.121,0,0,1,.921,2.044Zm-4.777,2.157-.681.307a1.121,1.121,0,1,1-.921-2.044l.681-.307a1.121,1.121,0,1,1,.921,2.044Zm-4.785,2.157L55.1,73.1a1.121,1.121,0,1,1-.921-2.044l.681-.307a1.121,1.121,0,0,1,.921,2.044ZM51.006,74.94l-.681.307A1.121,1.121,0,0,1,49.4,73.2l.681-.307a1.121,1.121,0,1,1,.921,2.044ZM46.228,77.1l-.681.307a1.121,1.121,0,1,1-.921-2.044l.681-.307a1.121,1.121,0,0,1,.921,2.044Zm-4.777,2.157-.681.307a1.121,1.121,0,1,1-.921-2.044l.681-.307a1.121,1.121,0,0,1,.921,2.044Z" transform="translate(-39.188 -64.178)" fill="#4a504c"/>
      </g>
      <g id="Group_568" data-name="Group 568" transform="translate(23.661 28.128)">
        <path id="Path_21318" data-name="Path 21318" d="M51.143,39.711,33.179,47.806a1.121,1.121,0,1,1-.921-2.044l17.964-8.095a1.121,1.121,0,0,1,.921,2.044Z" transform="translate(-31.598 -37.568)" fill="#4a504c"/>
      </g>
      <g id="Group_569" data-name="Group 569" transform="translate(28.962 33.624)">
        <path id="Path_21319" data-name="Path 21319" d="M51.14,47.051l-10.88,4.9a1.121,1.121,0,0,1-.921-2.044l10.88-4.9a1.121,1.121,0,1,1,.921,2.044Z" transform="translate(-38.678 -44.908)" fill="#4a504c"/>
      </g>
      <g id="Group_570" data-name="Group 570" transform="translate(52.4 59.608)">
        <path id="Path_21320" data-name="Path 21320" d="M75.169,81.751l-3.609,1.625a1.121,1.121,0,0,1-.921-2.044l3.609-1.625a1.124,1.124,0,0,1,1.483.562A1.112,1.112,0,0,1,75.169,81.751Z" transform="translate(-69.978 -79.608)" fill="#4a504c"/>
      </g>
      <g id="Group_571" data-name="Group 571" transform="translate(32.654 64.977)">
        <path id="Path_21321" data-name="Path 21321" d="M56.631,88.921,45.189,94.08a1.121,1.121,0,0,1-.921-2.044L55.71,86.877a1.121,1.121,0,0,1,.921,2.044Z" transform="translate(-43.608 -86.778)" fill="#4a504c"/>
      </g>
      <g id="Group_572" data-name="Group 572" transform="translate(59.468 56.425)">
        <path id="Path_21322" data-name="Path 21322" d="M84.609,77.5,81,79.126a1.121,1.121,0,1,1-.921-2.044l3.609-1.625a1.121,1.121,0,1,1,.921,2.044Z" transform="translate(-79.418 -75.358)" fill="#4a504c"/>
      </g>
      <g id="Group_573" data-name="Group 573" transform="translate(24.134 35.887)">
        <path id="Path_21323" data-name="Path 21323" d="M34.372,67.046l-1.655.749-.487-1.071,4.613-2.074.487,1.071-1.655.749,2.1,4.658-1.3.584Z" transform="translate(-32.23 -52.13)" fill="#4a504c"/>
        <path id="Path_21324" data-name="Path 21324" d="M41.84,62.88l2.583,5.728-1.31.592L40.53,63.472Z" transform="translate(-34.315 -51.685)" fill="#4a504c"/>
        <path id="Path_21325" data-name="Path 21325" d="M47.743,59.886a2.956,2.956,0,0,1,3.033.232l-.839,1.018a1.59,1.59,0,0,0-1.647-.18c-.854.382-1.228,1.333-.674,2.561s1.52,1.572,2.366,1.191a1.6,1.6,0,0,0,.958-1.355l1.318.045a3.174,3.174,0,1,1-4.515-3.512Z" transform="translate(-35.673 -50.856)" fill="#4a504c"/>
        <path id="Path_21326" data-name="Path 21326" d="M56.349,58.953l.681-3.422,1.438-.651-.741,3.167L61.3,60.5l-1.475.666-2.4-1.73-.3,1.258.636,1.408-1.3.584L53.87,56.954l1.3-.584Z" transform="translate(-37.666 -49.676)" fill="#4a504c"/>
        <path id="Path_21327" data-name="Path 21327" d="M62.36,53.25l3.834-1.73.472,1.041L64.135,53.7l.554,1.228,2.246-1.011.472,1.041-2.246,1.011.622,1.385,2.606-1.176.472,1.041-3.909,1.76Z" transform="translate(-39.799 -48.832)" fill="#4a504c"/>
        <path id="Path_21328" data-name="Path 21328" d="M71.452,50.326l-1.655.749L69.31,50l4.613-2.074L74.409,49l-1.655.749,2.1,4.658-1.3.584Z" transform="translate(-41.544 -47.93)" fill="#4a504c"/>
      </g>
      <g id="Group_574" data-name="Group 574" transform="translate(67.101 16.187)">
        <path id="Path_21329" data-name="Path 21329" d="M96.185,30.531a4.66,4.66,0,1,1,2.336-6.17A4.664,4.664,0,0,1,96.185,30.531Zm-2.905-6.447a2.411,2.411,0,1,0,3.19,1.206A2.413,2.413,0,0,0,93.279,24.084Z" transform="translate(-89.611 -21.621)" fill="#4a504c"/>
      </g>
      <g id="Group_575" data-name="Group 575" transform="translate(72.582 28.355)">
        <path id="Path_21330" data-name="Path 21330" d="M103.5,46.781a4.66,4.66,0,1,1,2.336-6.163A4.664,4.664,0,0,1,103.5,46.781ZM100.6,40.334a2.411,2.411,0,1,0,3.19,1.206A2.413,2.413,0,0,0,100.6,40.334Z" transform="translate(-96.931 -37.871)" fill="#4a504c"/>
      </g>
      <g id="Group_576" data-name="Group 576" transform="translate(78.071 40.523)">
        <path id="Path_21331" data-name="Path 21331" d="M110.835,63.031a4.66,4.66,0,1,1,2.336-6.163A4.664,4.664,0,0,1,110.835,63.031Zm-2.905-6.447a2.411,2.411,0,1,0,3.19,1.206A2.413,2.413,0,0,0,107.929,56.584Z" transform="translate(-104.261 -54.121)" fill="#4a504c"/>
      </g>
    </g>
  </g>
</svg>
