<svg xmlns="http://www.w3.org/2000/svg" width="9.874" height="16.888" viewBox="0 0 9.874 16.888">
  <path id="Path_19871" data-name="Path 19871" d="M-588.07,725.57a5.094,5.094,0,0,0-4.937-5.238,5.094,5.094,0,0,0-4.937,5.238,5.515,5.515,0,0,0,.256,1.656h0l.01.021a5.324,5.324,0,0,0,.6,1.279l4.074,8.693,4.077-8.7a5.349,5.349,0,0,0,.595-1.269l.013-.028h0A5.515,5.515,0,0,0-588.07,725.57Zm-4.937,2.484a2.558,2.558,0,0,1-2.479-2.63,2.558,2.558,0,0,1,2.479-2.63,2.558,2.558,0,0,1,2.479,2.63A2.558,2.558,0,0,1-593.007,728.054Z" transform="translate(597.944 -720.333)" fill="#66726e"/>
</svg>
