<svg xmlns="http://www.w3.org/2000/svg" width="63.498" height="36.177" viewBox="0 0 63.498 36.177">
  <g id="Group_1142" data-name="Group 1142" transform="translate(0 -110.148)">
    <path id="Path_21581" data-name="Path 21581" d="M62.263,143.847H49.078a3.7,3.7,0,0,0,.213-1.239v-1.239H55.41a8.029,8.029,0,0,0,5.677-13.705l-.8-.8h0l-6.938-6.938h0l-3.535-3.535a21.178,21.178,0,0,0-15.074-6.244H1.243a1.239,1.239,0,0,0,0,2.478h33.5a18.715,18.715,0,0,1,13.321,5.518l1.42,1.42H35.206a4.708,4.708,0,1,0,0,9.416H58.9l.436.436a5.551,5.551,0,0,1-3.925,9.476H1.243a1.239,1.239,0,1,0,0,2.478H6.758v1.239a3.7,3.7,0,0,0,.213,1.239H1.307a1.239,1.239,0,0,0,0,2.478H22.121a1.239,1.239,0,0,0,0-2.478H13.979a3.7,3.7,0,0,0,.213-1.239v-1.239H41.857v1.239a3.7,3.7,0,0,0,.213,1.239H31.791a1.239,1.239,0,0,0,0,2.478H62.263a1.239,1.239,0,0,0,0-2.478ZM35.206,126.5a2.23,2.23,0,1,1,0-4.46H51.96l4.46,4.46ZM11.714,142.608a1.239,1.239,0,1,1-2.478,0v-1.239h2.478Zm32.621,0v-1.239h2.478v1.239a1.239,1.239,0,1,1-2.478,0Z" transform="translate(-0.004 0)"/>
    <path id="Path_21582" data-name="Path 21582" d="M208.548,381.872a1.239,1.239,0,1,0,.876.363A1.248,1.248,0,0,0,208.548,381.872Z" transform="translate(-181.599 -238.025)"/>
    <path id="Path_21583" data-name="Path 21583" d="M20.571,193.009H1.243a1.239,1.239,0,1,0,0,2.478H20.571a4.708,4.708,0,0,0,0-9.416H5.974a1.239,1.239,0,1,0,0,2.478h14.6a2.23,2.23,0,0,1,0,4.46Z" transform="translate(-0.004 -66.507)"/>
    <path id="Path_21584" data-name="Path 21584" d="M1.239,186.071a1.239,1.239,0,1,0,.876.363A1.248,1.248,0,0,0,1.239,186.071Z" transform="translate(0 -66.507)"/>
  </g>
</svg>
