<svg id="usb" xmlns="http://www.w3.org/2000/svg" width="5.999" height="11.687" viewBox="0 0 5.999 11.687">
  <path id="Path_21517" data-name="Path 21517" d="M260.295,231.351a.244.244,0,0,0-.244.244v1.147a.244.244,0,1,0,.488,0V231.6a.244.244,0,0,0-.244-.244Zm0,0" transform="translate(-257.951 -230.144)" fill="#1e3867"/>
  <path id="Path_21518" data-name="Path 21518" d="M319.455,231.351a.244.244,0,0,0-.244.244v1.147a.244.244,0,1,0,.488,0V231.6a.244.244,0,0,0-.244-.244Zm0,0" transform="translate(-315.668 -230.144)" fill="#1e3867"/>
  <path id="Path_21519" data-name="Path 21519" d="M179.755,185.313h-.412v-3.179a.244.244,0,0,0-.244-.244h-4.2a.244.244,0,0,0-.244.244v3.179h-.412a.244.244,0,0,0-.244.244v4.994a3,3,0,1,0,6,0v-4.994a.244.244,0,0,0-.244-.244Zm-4.611-2.935h3.711v2.935h-3.711Zm4.367,8.173a2.512,2.512,0,1,1-5.023,0V185.8h5.023Zm0,0" transform="translate(-174 -181.89)" fill="#1e3867"/>
  <path id="Path_21520" data-name="Path 21520" d="M250.276,496.435a1.167,1.167,0,1,0-1.167-1.167,1.167,1.167,0,0,0,1.167,1.167Zm0-1.846a.679.679,0,1,1-.679.679.679.679,0,0,1,.679-.679Zm0,0" transform="translate(-247.276 -486.484)" fill="#1e3867"/>
</svg>
