<svg id="Component_12_1" data-name="Component 12 – 1" xmlns="http://www.w3.org/2000/svg" width="1963.206" height="603.471" viewBox="0 0 1963.206 603.471">
  <g id="Group_545" data-name="Group 545" transform="translate(201.251 384.296)">
    <g id="Group_541" data-name="Group 541" transform="translate(167.283 -60)">
      <g id="Group_540" data-name="Group 540">
        <path id="Path_21275" data-name="Path 21275" d="M246.8,65.649a.482.482,0,0,1-.426-.257.49.49,0,0,1,.036-.516l11.518-15.713.782.574-10.923,14.9,4.19-.186,21.077-16.11a.485.485,0,0,1,.24-.1c.123-.015,12.305-1.383,15.766-2.138,1.615-.354,2.64-.86,3.044-1.506a1.538,1.538,0,0,0,.138-1.242c-.143-.6-1.6-1.184-2.548-1.393a.5.5,0,0,1-.14-.056,17.157,17.157,0,0,0-5.953-1.758c-3.735-.467-46.439,5.616-46.87,5.677a.481.481,0,0,1-.334-.075l-13.57-8.857-4.3-.044,10.908,12.993-.741.622L217.1,36.667a.485.485,0,0,1,.375-.8l5.5.056a.473.473,0,0,1,.259.08l13.536,8.835c3.449-.492,43.172-6.125,46.948-5.655a18.142,18.142,0,0,1,6.253,1.845c.62.143,2.889.756,3.209,2.095a2.481,2.481,0,0,1-.262,1.984c-.557.886-1.753,1.521-3.659,1.937-3.354.731-14.32,1.981-15.732,2.141l-21.092,16.12a.484.484,0,0,1-.274.1l-5.352.24S246.8,65.649,246.8,65.649Z" transform="translate(-216.992 -27.183)" fill="#a29d9d"/>
        <rect id="Rectangle_1469" data-name="Rectangle 1469" width="25.57" height="0.969" transform="translate(15.822 24.188) rotate(-5.377)" fill="#a29d9d"/>
        <path id="Path_21276" data-name="Path 21276" d="M304.741,16.592,289.236.823A.485.485,0,0,1,289.587,0l4.471.046a.48.48,0,0,1,.23.061l25.059,13.872-.47.848L293.925,1.012,290.75.981l14.681,14.933Z" transform="translate(-271.634)" fill="#a29d9d"/>
        <path id="Path_21277" data-name="Path 21277" d="M449.7,88.95" transform="translate(-393.341 -67.408)" fill="none" stroke="#000" stroke-linejoin="round" stroke-miterlimit="10" stroke-width="4"/>
        <path id="Path_21278" data-name="Path 21278" d="M243.623,86.616l-6.159-.124A.483.483,0,0,1,236.99,86l.024-2.456a.486.486,0,0,1,.414-.475l4.589-.683.143.959-4.183.622-.017,1.562,5.679.114Z" transform="translate(-232.147 -62.436)" fill="#a29d9d"/>
        <path id="Path_21279" data-name="Path 21279" d="M247.845,97.179h0l-4.03-.041a.484.484,0,0,1-.407-.739l6.035-9.779a.489.489,0,0,1,.426-.23l4.836.143a.485.485,0,0,1,.38.765l-6.842,9.678A.48.48,0,0,1,247.845,97.179Zm-3.168-1,2.918.029,6.173-8.733-3.655-.107Z" transform="translate(-236.952 -65.467)" fill="#a29d9d"/>
      </g>
    </g>
    <path id="Path_21280" data-name="Path 21280" d="M33.95,222.093H.012L0,221.573c0-.029,0-.061,0-.092a7.8,7.8,0,0,1,10.4-7.355,10.977,10.977,0,0,1,18.171,2.867,4.566,4.566,0,0,1,5.391,4.488c0,.039,0,.075,0,.114ZM.978,221.125h32a3.6,3.6,0,0,0-3.577-3.238,3.541,3.541,0,0,0-.981.138l-.419.119-.162-.4a10.011,10.011,0,0,0-16.924-2.727l-.228.266-.325-.131a6.833,6.833,0,0,0-9.387,5.977Z" transform="translate(0 -146.01)" fill="#a29d9d"/>
    <path id="Path_21281" data-name="Path 21281" d="M190.64,169.753H156.7l-.01-.521c0-.031,0-.061,0-.092a7.8,7.8,0,0,1,10.4-7.355,10.978,10.978,0,0,1,18.171,2.865,4.566,4.566,0,0,1,5.391,4.488c0,.039,0,.075,0,.114Zm-32.969-.969h32a3.6,3.6,0,0,0-3.577-3.238,3.54,3.54,0,0,0-.981.138l-.419.119-.162-.4a10.011,10.011,0,0,0-16.924-2.727l-.228.266-.325-.131a6.771,6.771,0,0,0-2.562-.5A6.842,6.842,0,0,0,157.671,168.785Z" transform="translate(-95.13 -110.995)" fill="#a29d9d"/>
    <g id="Group_542" data-name="Group 542" transform="translate(12.474 48.497)">
      <rect id="Rectangle_1470" data-name="Rectangle 1470" width="1.453" height="11.327" transform="translate(0 1.453) rotate(-89.416)" fill="#a29d9d"/>
      <rect id="Rectangle_1471" data-name="Rectangle 1471" width="1.453" height="3.776" transform="matrix(0.01, -1, 1, 0.01, 14.39, 1.755)" fill="#a29d9d"/>
    </g>
    <g id="Group_543" data-name="Group 543" transform="translate(60.981 81.711)">
      <rect id="Rectangle_1472" data-name="Rectangle 1472" width="1.453" height="11.327" transform="translate(0 1.453) rotate(-89.416)" fill="#a29d9d"/>
      <rect id="Rectangle_1473" data-name="Rectangle 1473" width="1.453" height="3.776" transform="matrix(0.01, -1, 1, 0.01, 14.386, 1.75)" fill="#a29d9d"/>
    </g>
    <g id="Group_544" data-name="Group 544" transform="translate(116.673 48.683)">
      <rect id="Rectangle_1474" data-name="Rectangle 1474" width="1.453" height="11.327" transform="translate(0 1.453) rotate(-89.416)" fill="#a29d9d"/>
      <rect id="Rectangle_1475" data-name="Rectangle 1475" width="1.453" height="3.776" transform="matrix(0.01, -1, 1, 0.01, 14.385, 1.755)" fill="#a29d9d"/>
    </g>
  </g>
  <g id="Group_547" data-name="Group 547" transform="translate(752.368)">
    <path id="Path_21294" data-name="Path 21294" d="M109.889,159.5a17.059,17.059,0,1,1,17.059-17.059A17.079,17.079,0,0,1,109.889,159.5Zm0-33.574A16.513,16.513,0,1,0,126.4,142.438,16.532,16.532,0,0,0,109.889,125.925Z" transform="translate(-80.168 -108.269)" fill="#a7a3a3"/>
    <rect id="Rectangle_1476" data-name="Rectangle 1476" width="0.546" height="17.383" transform="translate(29.448)" fill="#a7a3a3"/>
    <rect id="Rectangle_1477" data-name="Rectangle 1477" width="0.546" height="10.057" transform="matrix(0.866, -0.5, 0.5, 0.866, 16.063, 11.059)" fill="#a7a3a3"/>
    <rect id="Rectangle_1478" data-name="Rectangle 1478" width="0.546" height="17.383" transform="matrix(0.5, -0.866, 0.866, 0.5, -0.008, 17.322)" fill="#a7a3a3"/>
    <rect id="Rectangle_1479" data-name="Rectangle 1479" width="8.692" height="0.546" transform="translate(4.243 33.898)" fill="#a7a3a3"/>
    <rect id="Rectangle_1480" data-name="Rectangle 1480" width="17.383" height="0.546" transform="matrix(0.866, -0.5, 0.5, 0.866, -0.008, 51.018)" fill="#a7a3a3"/>
    <rect id="Rectangle_1481" data-name="Rectangle 1481" width="10.057" height="0.546" transform="matrix(0.5, -0.866, 0.866, 0.5, 16.063, 57.279)" fill="#a7a3a3"/>
    <rect id="Rectangle_1482" data-name="Rectangle 1482" width="0.546" height="17.383" transform="translate(29.448 50.957)" fill="#a7a3a3"/>
    <rect id="Rectangle_1483" data-name="Rectangle 1483" width="0.546" height="8.692" transform="matrix(0.866, -0.5, 0.5, 0.866, 37.877, 48.842)" fill="#a7a3a3"/>
    <rect id="Rectangle_1484" data-name="Rectangle 1484" width="0.546" height="17.383" transform="matrix(0.5, -0.866, 0.866, 0.5, 44.121, 42.8)" fill="#a7a3a3"/>
    <rect id="Rectangle_1485" data-name="Rectangle 1485" width="10.519" height="0.546" transform="translate(46.508 33.898)" fill="#a7a3a3"/>
    <rect id="Rectangle_1486" data-name="Rectangle 1486" width="17.383" height="0.546" transform="matrix(0.866, -0.5, 0.5, 0.866, 44.121, 25.541)" fill="#a7a3a3"/>
    <rect id="Rectangle_1487" data-name="Rectangle 1487" width="10.057" height="0.546" transform="translate(37.878 19.494) rotate(-60.007)" fill="#a7a3a3"/>
  </g>
  <g id="Group_550" data-name="Group 550" transform="translate(1857.456 372.913)">
    <path id="Path_21295" data-name="Path 21295" d="M49.917,69.377H.018L0,68.612c0-.046,0-.089,0-.135A11.476,11.476,0,0,1,15.3,57.661a16.143,16.143,0,0,1,26.72,4.213,6.715,6.715,0,0,1,7.927,6.6c0,.061,0,.118,0,.174ZM1.439,67.953H48.5a5.294,5.294,0,0,0-5.26-4.761,5.207,5.207,0,0,0-1.442.2l-.616.174-.239-.595a14.721,14.721,0,0,0-24.886-4.01l-.335.392-.477-.192a10.048,10.048,0,0,0-13.8,8.789Z" transform="translate(0 -33.694)" fill="#a29d9d"/>
    <path id="Path_21296" data-name="Path 21296" d="M206.614,17.044H156.708l-.014-.766c0-.046,0-.089,0-.135a11.476,11.476,0,0,1,15.3-10.815,16.147,16.147,0,0,1,26.723,4.22,6.715,6.715,0,0,1,7.927,6.6c0,.053,0,.107,0,.16Zm-48.482-1.424H205.19a5.294,5.294,0,0,0-5.26-4.761,5.207,5.207,0,0,0-1.442.2l-.616.174-.239-.595a14.724,14.724,0,0,0-24.889-4.01l-.335.392-.477-.192a10.045,10.045,0,0,0-13.8,8.789Z" transform="translate(-100.89)" fill="#a29d9d"/>
    <g id="Group_548" data-name="Group 548" transform="translate(18.347 3.19)">
      <rect id="Rectangle_1488" data-name="Rectangle 1488" width="2.137" height="16.656" transform="translate(0 2.137) rotate(-89.416)" fill="#a29d9d"/>
      <rect id="Rectangle_1489" data-name="Rectangle 1489" width="2.137" height="5.552" transform="matrix(0.01, -1, 1, 0.01, 21.157, 2.585)" fill="#a29d9d"/>
    </g>
    <g id="Group_549" data-name="Group 549" transform="translate(58.466 43.955)">
      <rect id="Rectangle_1490" data-name="Rectangle 1490" width="2.137" height="16.656" transform="translate(0 2.137) rotate(-89.416)" fill="#a29d9d"/>
      <rect id="Rectangle_1491" data-name="Rectangle 1491" width="2.137" height="5.552" transform="matrix(0.01, -1, 1, 0.01, 21.154, 2.578)" fill="#a29d9d"/>
    </g>
  </g>
  <g id="Group_551" data-name="Group 551" transform="translate(1620.87 425.913)">
    <path id="Path_21295-2" data-name="Path 21295" d="M49.917,69.377H.018L0,68.612c0-.046,0-.089,0-.135A11.476,11.476,0,0,1,15.3,57.661a16.143,16.143,0,0,1,26.72,4.213,6.715,6.715,0,0,1,7.927,6.6c0,.061,0,.118,0,.174ZM1.439,67.953H48.5a5.294,5.294,0,0,0-5.26-4.761,5.207,5.207,0,0,0-1.442.2l-.616.174-.239-.595a14.721,14.721,0,0,0-24.886-4.01l-.335.392-.477-.192a10.048,10.048,0,0,0-13.8,8.789Z" transform="translate(0 -33.694)" fill="#a29d9d"/>
    <g id="Group_548-2" data-name="Group 548" transform="translate(18.347 3.19)">
      <rect id="Rectangle_1488-2" data-name="Rectangle 1488" width="2.137" height="16.656" transform="translate(0 2.137) rotate(-89.416)" fill="#a29d9d"/>
      <rect id="Rectangle_1489-2" data-name="Rectangle 1489" width="2.137" height="5.552" transform="matrix(0.01, -1, 1, 0.01, 21.157, 2.585)" fill="#a29d9d"/>
    </g>
  </g>
  <path id="Path_21297" data-name="Path 21297" d="M95.834,32.719H.034L.007,31.25C0,31.161,0,31.079,0,30.99A22.032,22.032,0,0,1,29.37,10.227a30.992,30.992,0,0,1,51.294,8.1A12.89,12.89,0,0,1,95.882,31c0,.1,0,.205-.007.308ZM2.762,29.985H93.1A10.162,10.162,0,0,0,83,20.844a10,10,0,0,0-2.769.39l-1.183.335-.458-1.142a28.265,28.265,0,0,0-47.78-7.7l-.643.752-.916-.369A19.283,19.283,0,0,0,2.762,29.985Z" transform="translate(0 412.365)" fill="#a29d9d" opacity="0.53"/>
  <g id="Group_546" data-name="Group 546" transform="translate(929.493 568.579)">
    <path id="Path_21282" data-name="Path 21282" d="M115.23,30.267H99.867a.741.741,0,0,1-.561-.259.73.73,0,0,1-.166-.595,8.92,8.92,0,0,0,.1-.9,6.434,6.434,0,0,0-1.884-4.728,7.367,7.367,0,0,0-5.186-2.309,7.243,7.243,0,0,0-7.07,7.1,5.894,5.894,0,0,0,.03.875.736.736,0,0,1-.735.816H38.741a.737.737,0,0,1-.731-.824c.022-.181.037-.366.044-.55a6.434,6.434,0,0,0-1.884-4.728,7.366,7.366,0,0,0-5.186-2.309,7.243,7.243,0,0,0-7.07,7.1,5.178,5.178,0,0,0,0,.532.739.739,0,0,1-.739.772H4.68A4.686,4.686,0,0,1,0,25.587V4.422A4.427,4.427,0,0,1,4.422,0h99.15a10.95,10.95,0,0,1,10.66,8.37l4.314,17.671a3.417,3.417,0,0,1-3.317,4.226ZM100.695,28.79H115.23a1.934,1.934,0,0,0,1.88-2.394L112.8,8.725a9.468,9.468,0,0,0-9.224-7.247H4.422A2.95,2.95,0,0,0,1.478,4.422V25.584a3.207,3.207,0,0,0,3.2,3.2H22.444a8.513,8.513,0,0,1,14.794-5.641,7.915,7.915,0,0,1,2.3,5.644H83.607c0-.092,0-.188.007-.281a8.518,8.518,0,0,1,14.8-5.748,7.894,7.894,0,0,1,2.294,5.814C100.7,28.646,100.7,28.716,100.695,28.79Z" fill="#a29d9d"/>
    <path id="Path_21283" data-name="Path 21283" d="M238.719,72.918a6.309,6.309,0,1,1,6.309-6.309A6.315,6.315,0,0,1,238.719,72.918Zm0-11.137a4.832,4.832,0,1,0,4.832,4.832A4.838,4.838,0,0,0,238.719,61.781Z" transform="translate(-146.561 -38.026)" fill="#a29d9d"/>
    <path id="Path_21284" data-name="Path 21284" d="M73.109,72.918a6.309,6.309,0,1,1,6.309-6.309A6.315,6.315,0,0,1,73.109,72.918Zm0-11.137a4.832,4.832,0,1,0,4.832,4.832A4.838,4.838,0,0,0,73.109,61.781Z" transform="translate(-42.125 -38.026)" fill="#a29d9d"/>
    <path id="Path_21285" data-name="Path 21285" d="M279.82,22.6c-3.938,0-12.06-.72-17.058-6.18a.733.733,0,0,1-.192-.5V2h1.478V15.63c6.191,6.475,17.779,5.419,17.893,5.408l.144,1.47C281.959,22.523,281.117,22.6,279.82,22.6Z" transform="translate(-165.58 -1.261)" fill="#a29d9d"/>
    <path id="Path_21286" data-name="Path 21286" d="M240,20.09h-6.856a.741.741,0,0,1-.739-.739V11.639a.741.741,0,0,1,.739-.739H240a.741.741,0,0,1,.739.739v7.713A.739.739,0,0,1,240,20.09Zm-6.113-1.478h5.378V12.378h-5.378Z" transform="translate(-146.561 -6.874)" fill="#a29d9d"/>
    <path id="Path_21287" data-name="Path 21287" d="M209.5,20.09h-6.856a.741.741,0,0,1-.739-.739V11.639a.741.741,0,0,1,.739-.739H209.5a.741.741,0,0,1,.739.739v7.713A.739.739,0,0,1,209.5,20.09Zm-6.117-1.478h5.378V12.378h-5.378Z" transform="translate(-127.327 -6.874)" fill="#a29d9d"/>
    <path id="Path_21288" data-name="Path 21288" d="M179,20.09h-6.856a.741.741,0,0,1-.739-.739V11.639a.741.741,0,0,1,.739-.739H179a.741.741,0,0,1,.739.739v7.713A.741.741,0,0,1,179,20.09Zm-6.117-1.478h5.378V12.378h-5.378Z" transform="translate(-108.094 -6.874)" fill="#a29d9d"/>
    <path id="Path_21289" data-name="Path 21289" d="M148.5,20.09h-6.856a.741.741,0,0,1-.739-.739V11.639a.741.741,0,0,1,.739-.739H148.5a.741.741,0,0,1,.739.739v7.713A.741.741,0,0,1,148.5,20.09Zm-6.117-1.478h5.378V12.378h-5.378Z" transform="translate(-88.86 -6.874)" fill="#a29d9d"/>
    <path id="Path_21290" data-name="Path 21290" d="M118,20.09h-6.856a.741.741,0,0,1-.739-.739V11.639a.741.741,0,0,1,.739-.739H118a.741.741,0,0,1,.739.739v7.713A.741.741,0,0,1,118,20.09Zm-6.117-1.478h5.378V12.378h-5.378Z" transform="translate(-69.626 -6.874)" fill="#a29d9d"/>
    <path id="Path_21291" data-name="Path 21291" d="M87.5,20.09H80.649a.741.741,0,0,1-.739-.739V11.639a.741.741,0,0,1,.739-.739H87.5a.741.741,0,0,1,.739.739v7.713A.744.744,0,0,1,87.5,20.09Zm-6.113-1.478h5.378V12.378H81.388Z" transform="translate(-50.392 -6.874)" fill="#a29d9d"/>
    <path id="Path_21292" data-name="Path 21292" d="M57,20.09H50.149a.741.741,0,0,1-.739-.739V11.639a.741.741,0,0,1,.739-.739H57a.741.741,0,0,1,.739.739v7.713A.744.744,0,0,1,57,20.09Zm-6.113-1.478h5.378V12.378H50.888Z" transform="translate(-31.159 -6.874)" fill="#a29d9d"/>
    <path id="Path_21293" data-name="Path 21293" d="M26.495,20.09H19.639a.741.741,0,0,1-.739-.739V11.639a.741.741,0,0,1,.739-.739h6.856a.741.741,0,0,1,.739.739v7.713A.741.741,0,0,1,26.495,20.09Zm-6.117-1.478h5.378V12.378H20.378Z" transform="translate(-11.919 -6.874)" fill="#a29d9d"/>
  </g>
</svg>
