<svg id="Group_836" data-name="Group 836" xmlns="http://www.w3.org/2000/svg" xmlns:xlink="http://www.w3.org/1999/xlink" width="14.581" height="11.447" viewBox="0 0 14.581 11.447">
  <defs>
    <clipPath id="clip-path">
      <rect id="Rectangle_1636" data-name="Rectangle 1636" width="14.581" height="11.447" fill="#1e3867"/>
    </clipPath>
  </defs>
  <g id="Group_835" data-name="Group 835" transform="translate(0 0)">
    <g id="Group_834" data-name="Group 834" clip-path="url(#clip-path)">
      <path id="Path_21521" data-name="Path 21521" d="M190.289,341.453a.91.91,0,1,0,.914.91.913.913,0,0,0-.914-.91Zm7.036-6.835a10.433,10.433,0,0,0-14.077,0,.761.761,0,0,0,0,1.126.891.891,0,0,0,1.2,0,8.9,8.9,0,0,1,11.673,0,.891.891,0,0,0,1.2,0,.762.762,0,0,0,0-1.126Zm-7.046.453a7.336,7.336,0,0,0-5.2,2.139.877.877,0,0,0,0,1.247.891.891,0,0,0,1.256,0,5.474,5.474,0,0,1,7.891,0,.892.892,0,0,0,1.255,0,.876.876,0,0,0,0-1.247,7.337,7.337,0,0,0-5.2-2.139Zm.008,3.187a4.074,4.074,0,0,0-2.942,1.255.878.878,0,0,0,0,1.215.817.817,0,0,0,1.178,0,2.382,2.382,0,0,1,3.527,0,.816.816,0,0,0,1.179,0,.879.879,0,0,0,0-1.214,4.075,4.075,0,0,0-2.942-1.255Zm0,0" transform="translate(-182.999 -331.886)" fill="#1e3867"/>
    </g>
  </g>
</svg>
