<svg xmlns="http://www.w3.org/2000/svg" width="47.86" height="51.931" viewBox="0 0 47.86 51.931">
  <g id="Group_964" data-name="Group 964" transform="translate(4485.741 -3705.176)">
    <g id="Group_960" data-name="Group 960" transform="translate(-4478.077 3705.176)">
      <path id="Path_21728" data-name="Path 21728" d="M-670.476,157.192a7.233,7.233,0,0,0,7.233-7.234v-7.214c0-6.39-1.067-10.858-4.1-13.895-2.856-2.856-7.128-4.377-12.161-4.377s-9.306,1.522-12.161,4.378c-3.037,3.037-4.105,7.5-4.105,13.895v7.215a7.234,7.234,0,0,0,7.234,7.234Z" transform="translate(695.774 -124.472)" fill="#49342b"/>
      <path id="Path_21729" data-name="Path 21729" d="M-638.638,128.849c-2.856-2.856-7.128-4.377-12.161-4.377v32.72h9.032a7.233,7.233,0,0,0,7.233-7.234v-7.214C-634.534,136.354-635.6,131.886-638.638,128.849Z" transform="translate(667.065 -124.472)" fill="#070403" opacity="0.1"/>
      <path id="Path_21730" data-name="Path 21730" d="M-691.669,128.85c-3.037,3.037-4.105,7.5-4.105,13.895v7.215a7.234,7.234,0,0,0,7.234,7.234h9.033v-32.72C-684.541,124.472-688.813,125.994-691.669,128.85Z" transform="translate(695.774 -124.472)" fill="#fff" opacity="0.13"/>
    </g>
    <path id="Path_21731" data-name="Path 21731" d="M-670.383,219.665a5.26,5.26,0,0,0-3.114-4l-12.782-5.483a2.473,2.473,0,0,1-1.5-2.269v-3.089h-10.519v3.089a2.474,2.474,0,0,1-1.5,2.269l-12.782,5.483a5.259,5.259,0,0,0-3.114,4l-1.279,8.03h47.86Z" transform="translate(-3768.777 3529.412)" fill="#eddbce"/>
    <path id="Path_21732" data-name="Path 21732" d="M-628.148,219.665a5.26,5.26,0,0,0-3.114-4l-12.782-5.483a2.473,2.473,0,0,1-1.5-2.269v-3.089H-650.8v22.869h23.93Z" transform="translate(-3811.011 3529.412)" fill="#070403" opacity="0.1"/>
    <path id="Path_21733" data-name="Path 21733" d="M-673.045,179.123a6.192,6.192,0,0,0,7.1,0l5.56-3.906a3.488,3.488,0,0,0,1.48-2.848V160.1h-21.183v12.273a3.489,3.489,0,0,0,1.48,2.848Z" transform="translate(-3792.317 3557.964)" fill="#eddbce"/>
    <path id="Path_21734" data-name="Path 21734" d="M-650.8,160.1v20.147a6.171,6.171,0,0,0,3.551-1.12l5.56-3.906a3.488,3.488,0,0,0,1.48-2.848V160.1Z" transform="translate(-3811.011 3557.964)" fill="#070403" opacity="0.07"/>
    <path id="Path_21735" data-name="Path 21735" d="M-645.932,226.414v11.312h22.17l-1.279-8.03a5.26,5.26,0,0,0-3.114-4l-12.022-5.157A6.96,6.96,0,0,1-645.932,226.414Z" transform="translate(-3814.118 3519.381)" fill="#e17395"/>
    <path id="Path_21736" data-name="Path 21736" d="M-700.549,220.542l-12.022,5.157a5.259,5.259,0,0,0-3.114,4l-1.279,8.03h22.17V226.414A6.96,6.96,0,0,1-700.549,220.542Z" transform="translate(-3768.777 3519.38)" fill="#ffa8c3"/>
  </g>
</svg>
